<?xml version="1.0" encoding="utf-8"?>
<!-- Generator: Adobe Illustrator 18.1.1, SVG Export Plug-In . SVG Version: 6.00 Build 0)  -->
<svg version="1.1" id="Слой_1" xmlns="http://www.w3.org/2000/svg" xmlns:xlink="http://www.w3.org/1999/xlink" x="0px" y="0px"
	 viewBox="0 0 2817.7 2000" enable-background="new 0 0 2817.7 2000" xml:space="preserve">
<g>
	<g>
		<linearGradient id="SVGID_1_" gradientUnits="userSpaceOnUse" x1="1050.4617" y1="349.7798" x2="1142.6885" y2="349.7798">
			<stop  offset="0" style="stop-color:#FF9F55"/>
			<stop  offset="1" style="stop-color:#FFD255"/>
		</linearGradient>
		<path fill="url(#SVGID_1_)" d="M1068,330.8c0,0-17.5,3-17.5,14.6c0,11.6,5.8,32,5.8,32l5.8,21.9l17,14.6l6.3-8.6
			c0,0,6.8-6.2,13.1-6.9c21.7-2.6,21.9-9,21.9-9l19-10.5c0,0,7.3-14.6,0-18.9c-7.3-4.4-28.4-17.5-30.2-17.5
			c-1.9,0-12.1-27.7-12.1-27.7l-21.4-29.2c0,0-15.1,12.1-12.2,19.9c2.9,7.8,7.3,10.7,5.8,18C1068,330.8,1068,330.8,1068,330.8z"/>
		<g>
			<linearGradient id="SVGID_2_" gradientUnits="userSpaceOnUse" x1="979.9819" y1="920.2963" x2="1507.3768" y2="920.2963">
				<stop  offset="0" style="stop-color:#FF9F55"/>
				<stop  offset="1" style="stop-color:#FFD255"/>
			</linearGradient>
			<path fill="url(#SVGID_2_)" d="M1502.8,656.1c-9.9,5.9-19.1,9.8-35.9,14.9c-44,13.4-56.2,18.3-105.1,26.9
				c-48.9,8.6-102.7-13.4-145.4,13.4c-42.8,26.9-50.5,27.7-50.5,27.7l-20.8,4.1c0,0-56-8.9-65.2-0.4c-7.9,7.4,2,0.4-34.6,44.4
				c-36.7,44-24.2,25.7-36.7,44c-27.1,39.8-34.2,22-24.4,58.7c9.8,36.7,51.3,70.9,51.3,70.9s63.5,4.9,75.8,9.8
				c12.2,4.9,102.7,11,102.7,11s64.7,92.9,76.9,112.4c12.2,19.6,13.2,40.2,22,75.8c1.5,5.8,2.6,10.7,3.6,14.9
				c117.7-114.5,190.9-274.7,190.9-452C1507.4,706.6,1505.8,681.1,1502.8,656.1z"/>
			<linearGradient id="SVGID_3_" gradientUnits="userSpaceOnUse" x1="921.8911" y1="405.8054" x2="1469.7849" y2="405.8054">
				<stop  offset="0" style="stop-color:#FF9F55"/>
				<stop  offset="1" style="stop-color:#FFD255"/>
			</linearGradient>
			<path fill="url(#SVGID_3_)" d="M1350.3,651.6c5.8,13.2,10.2-32.1,27.8-33.6c17.6-1.5,1.5-13.2-17.5-23.8
				c-19-10.7-32.2-55.1-43.8-69.7c-11.7-14.6,17.5-46.8,46.8-59.4c29.2-12.6,23.4,15.6,36.5,28.7c13.2,13.2-2.9,24.9,8.8,47.5
				c11.7,22.7,13.2,27.1,26.1,19.7c13-7.3-5.6-15.5-7.6-40.9c-1-12.2-1-24.8,18-9.1c18.6,15.4,27.4,69.5,23.6,4.2
				c-83.6-227.8-294.8-393.9-547-411.7l95,47.8l52.2,21.2c0,0,76.8,9.8,84.9,16.3c8.2,6.5,8.2,26.1,16.3,30.4
				c8.2,4.3,40.8,34.9,84.9,46.3c25.8,6.7,35.4,34.2,38.9,55.8c-8.7,4.4-12.6,17.1-12.6,21.8c0,5.9,7.3,13.2,5.9,20.8
				c-1.4,7.7-20.5,5.5-33.6,1.8c-13.2-3.7-5.8-0.7-13.2,0c-7.3,0.7-19,9.6-29.2,23c-10.2,13.4-32.2,12.9-49.7,15.9
				c-17.5,3.1-13.2-7.4-36.5,0c-23.4,7.4-33.6,58.4-24.8,80.3c8.8,21.9,4.4,35.1-1.5,56.3c-5.8,21.2-14,30.4-16.1,94.3
				c-3.4,106.7,43.8,62.8,73.1,67.2c29.2,4.4,24.8-10.2,30.7-21.9c5.8-11.7-13.2-42.4-14.6-70.1c-1.5-27.8-2.9-33.6,0-41.1
				c2.9-7.4,16.1-21.7,27.7-34.9c11.7-13.1,42.4-14.6,52.6-14.6s70.2,58.5,89.1,84.8C1360.5,631.2,1344.5,638.5,1350.3,651.6z"/>
			<linearGradient id="SVGID_4_" gradientUnits="userSpaceOnUse" x1="246.0988" y1="782.1894" x2="729.92" y2="782.1894">
				<stop  offset="0" style="stop-color:#FF9F55"/>
				<stop  offset="1" style="stop-color:#FFD255"/>
			</linearGradient>
			<path fill="url(#SVGID_4_)" d="M313.3,449.2c-0.2,0.7-0.3,1.4-0.3,2.1c-1.5,22.2-10.9,46.6-23.5,73.7
				c-10.3,22.3-12.4,29.4-19,36.9c-0.6,0.7-1.1,1.5-1.6,2.4c-14.8,53.6-22.8,110-22.8,168.3c0,12.5,0.4,24.9,1.1,37.2
				c0.5,1.7,1.2,3.3,2.4,4.7l6.8,8.3c2.2,2.7,5.5,4.4,9,4.5c7.1,0.2,18.8,2.2,17.4,13.7c-2,16.4,9.3,33.8,8.7,40.8
				c-0.5,7,17.3,8.9,16.1,36.6c-0.8,22.1,2.1,36.1,3.4,40.9c0.3,1.3,0.5,2.7,0.4,4c-0.5,6.6-2.1,27.3-3.4,44.8
				c-1.6,21.1,6.9,33.6,13.2,43.5c6,9.3,8.2,12.1,8.4,33c0,0.9,0.2,1.7,0.3,2.6c83.5,144.8,222.9,253.3,388.7,296
				c2.2-4.2,3.6-8.7,3.9-11.8v-0.1c0.5-6.2,4.3-34.8,5-40.8c0.1-0.7,0.2-1.4,0.1-2.2c-0.3-6.2-1.5-37.4,1.4-47.8
				c3.2-11.5-5.8-16.9-26.7-53.9c-20.9-37,0.2-33,4.2-56.3c4.1-23.3,2.3-30.5,8.1-44.3c5.8-13.7,0,0-3.8-12.1
				c-3.9-12.1-61.6-69.3-75.6-93c-14-23.8-25.5-6.6-46.4-10.6c-20.9-3.9,0,0-47.3-6.6c-23.7-3.3-24.7,3.3-32.6,1.9
				c-10.4-1.9-19.1,2.1-35.5-2.7c-16.5-4.7-39.5,19.8-53.1,12.1c-13.6-7.7-15.4-12-21.6-17.7c-6.2-5.7-26.3-7.5-34.5-31.4
				c-8.1-23.9,0.4-20.1-5.8-41.2c-6.2-21.1-4-24.5-6.2-27c-2.2-2.5-17.2-14.3-8.1-41.4c4.3-12.6-3.7-5.6-1.6-33.8
				c2.1-28.2,22.5-8.5,32.8-20.7c10.3-12.1,24.1-6.5,37.2-24.4c13.2-17.9,39-16,61.3-37.7c22.3-21.8,43.7-23.3,45.8-27.9l69.6-52
				c0.3-0.3,0.6-0.5,1-0.8c3.3-3.1,20.4-20.8,2.6-41.4c-19.5-22.7,8.9-24.1-19.5-22.7c-15.4,0.7-27.8,6.9-35.9,12.4
				c-5.9,4.1-14,2.3-17.6-4c-2.8-4.9-6-10.3-9-14.4c-5.8-8.1-19.5-26.8-24.6-33.7c-1.2-1.7-2.9-3-4.9-3.9c-5-2.2-15.1-6.6-21.3-8.7
				c-3.6-1.2-6.5-3.9-7.8-7.5c-1.8-5-3.5-10-5-14.8c-1.8-5.7,0.7-11.7,5.9-14.5l55.6-29.6c5.8-3.1,13-1.1,16.3,4.6
				c4.6,8.1,12.1,19,21.7,25.8c13.8,9.7,38.2,13.8,46.7,15c1.8,0.2,3.7,0,5.4-0.6c4.5-1.5,13.6-3.6,15.1,2.2
				c5.5,20.7,19.9,35.2,31,43.8c6.8,5.3,16.8,2,19.2-6.3l18.6-63.2c0.4-1.4,1.1-2.7,1.9-3.8l38.4-52c7.1-9.6,8.5-22.3,3.6-33.2
				l-6.9-15.3c-4-8.7-12.4-14.7-22-15.4l-19.7-1.5l-75-1.7c-3.7-0.1-7.1-1.8-9.4-4.7c-3.7-4.7-11.1-9.9-21.6,2.8L561,346.8
				c-2.5,3.1-6.5,4.7-10.5,4.4l-52-4.5c-0.9-0.1-1.8-0.3-2.7-0.5c-3.7-1.2-14.3-4.6-21.3-6.4c-3.2-0.8-5.8-2.9-7.4-5.7
				c-2.1-3.4-5.9-7.6-6-11.4c-0.8-48.7,36.5-90.8,46.7-101.5C426,280.2,359,358.4,313.3,449.2z"/>
		</g>
	</g>
	<g>
		<g>
			<g>
				<path fill="#252E3B" d="M568.7,1482.2c-15.8,0-28.7-15-28.7-33.4c0-18.4,12.9-33.4,28.7-33.4c15.8,0,28.7,15,28.7,33.4
					C597.4,1467.2,584.5,1482.2,568.7,1482.2z M568.7,1418c-14.4,0-26.1,13.8-26.1,30.8c0,17,11.7,30.8,26.1,30.8
					c14.4,0,26.1-13.8,26.1-30.8C594.8,1431.8,583.1,1418,568.7,1418z"/>
			</g>
		</g>
		<g>
			<rect x="496.7" y="1448.8" fill="#6B7ADB" width="144" height="209"/>
		</g>
		<g>
			<g>
				<path fill="#252E3B" d="M426.2,1446.1c-19.1,0-34.6-18.1-34.6-40.3c0-22.2,15.5-40.3,34.6-40.3s34.6,18.1,34.6,40.3
					C460.8,1428,445.3,1446.1,426.2,1446.1z M426.2,1368.7c-17.3,0-31.4,16.6-31.4,37.1c0,20.5,14.1,37.1,31.4,37.1
					c17.3,0,31.4-16.6,31.4-37.1C457.6,1385.3,443.5,1368.7,426.2,1368.7z"/>
			</g>
		</g>
		<g>
			<g>
				<path fill="#252E3B" d="M237.7,1504.6c-23.8,0-43.1-22.6-43.1-50.3s19.4-50.3,43.1-50.3c23.8,0,43.1,22.6,43.1,50.3
					S261.5,1504.6,237.7,1504.6z M237.7,1407.3c-22,0-39.9,21.1-39.9,47.1c0,26,17.9,47.1,39.9,47.1c22,0,39.9-21.1,39.9-47.1
					C277.6,1428.4,259.7,1407.3,237.7,1407.3z"/>
			</g>
		</g>
		<g>
			<linearGradient id="SVGID_5_" gradientUnits="userSpaceOnUse" x1="135.9565" y1="1556.0697" x2="339.3678" y2="1556.0697">
				<stop  offset="0" style="stop-color:#FF9F55"/>
				<stop  offset="1" style="stop-color:#FFD255"/>
			</linearGradient>
			<rect x="136" y="1454.4" fill="url(#SVGID_5_)" width="203.4" height="203.4"/>
		</g>
		<g>
			<rect x="339.4" y="1405.8" fill="#EDDAD3" width="173.7" height="252"/>
		</g>
	</g>
	<rect x="2036.2" y="1308.6" fill="#3D414A" width="103.4" height="26.5"/>
	<linearGradient id="SVGID_6_" gradientUnits="userSpaceOnUse" x1="1688.3484" y1="1243.9122" x2="1688.3484" y2="578.2173">
		<stop  offset="0" style="stop-color:#A1A1A1"/>
		<stop  offset="1" style="stop-color:#F5F2E4"/>
	</linearGradient>
	<rect x="1066.2" y="856" fill="url(#SVGID_6_)" width="1244.2" height="459"/>
	<linearGradient id="SVGID_7_" gradientUnits="userSpaceOnUse" x1="1490.9569" y1="937.8331" x2="2264.0176" y2="1516.1964">
		<stop  offset="0" style="stop-color:#FF9F55"/>
		<stop  offset="1" style="stop-color:#FFD255"/>
	</linearGradient>
	<rect x="1080.2" y="871.6" fill="url(#SVGID_7_)" width="1216.3" height="427.8"/>
	<polygon fill="#FFFFFF" points="2296.5,911.2 1887.2,911.2 1911.5,949 2296.5,949 	"/>
	<linearGradient id="SVGID_8_" gradientUnits="userSpaceOnUse" x1="2310.4575" y1="1573.0922" x2="2310.4575" y2="1027.5728">
		<stop  offset="0" style="stop-color:#A1A1A1"/>
		<stop  offset="1" style="stop-color:#F5F2E4"/>
	</linearGradient>
	<path fill="url(#SVGID_8_)" d="M2599.6,1446.1c0,0,80.5,0,97.9,0c17.5,0,20.4-26.8,19.4-46.9c-1-20.1-12.6-22-12.6-22l-46-15.3
		V1338l47.9,4.8c0,0,10.8,0,10.8-19.1c0-19.1-3.9-144.8-7-148.8c-3.1-4-9.4-5.4-9.4-5.4l-14.4-129.5c0,0,3.4-5.7,2.4-11
		c-1-5.3-4.8-40.2-23.3-47.9c-18.4-7.7-308.4-27.8-316.1-8.6c-7.8,19.1,0,356,0,356l12.6,6.7h-271.5c0,0-12-11.5-19.1-13.4
		c-7.1-1.9-113.8,0-113.8,0s-34.3,1.3-45.3,31.9c-11,30.6-9.1,68.3-7.1,73.4c1.9,5.1,14.9,19.1,14.9,19.1H2599.6z"/>
	<path fill="#454A54" d="M2700.8,1169.4l-220.5-20.2c-18.5-1.7-34.6-13.6-41-30.9c-2-5.2-3.4-11.3-4-18.1c-2.9-34,8.7-67.5,32-67.5
		c8.7,0,219.2,7.2,219.2,7.2L2700.8,1169.4z"/>
	<path fill="#B8B8B8" d="M2483.1,1149.4c0,0-23.1-60.3,3.1-89.5c11.9-13.3,202.1-3.6,202.1-3.6l12.5,113L2483.1,1149.4z"/>
	<linearGradient id="SVGID_9_" gradientUnits="userSpaceOnUse" x1="2304.9817" y1="1436.5588" x2="2304.9817" y2="1269.0734">
		<stop  offset="1.036270e-002" style="stop-color:#8A8A8A"/>
		<stop  offset="1" style="stop-color:#F5F2E4"/>
	</linearGradient>
	<path fill="url(#SVGID_9_)" d="M2722.3,1410.4c-2.4,15.6-2.9,35.7-19.9,35.7h-253.9c-228.5,0-528.4,0-528.4,0s-32.8,0.5-32.8-3.8
		s-2.5-33.7,16.4-31.9c12.3,1.1,319.4,0.8,536.8,0.4c72.3-0.1,134.7-0.3,173-0.3c24.2-0.1,38.8-0.1,40.3-0.1
		c11.2,0,11.2-28.1,62.1-18.5C2716,1391.9,2724.7,1394.8,2722.3,1410.4z"/>
	<ellipse fill="#3D414A" cx="2527.1" cy="1410.4" rx="70.5" ry="69.5"/>
	<ellipse fill="#ADA9A2" cx="2527.1" cy="1410.4" rx="11.4" ry="11.3"/>
	<g>
		<path fill="#ADA9A2" d="M2527.1,1461.3c-28.4,0-51.6-22.8-51.6-50.9c0-28.1,23.1-50.9,51.6-50.9c28.4,0,51.6,22.8,51.6,50.9
			C2578.7,1438.4,2555.5,1461.3,2527.1,1461.3z M2527.1,1360.6c-27.8,0-50.5,22.3-50.5,49.8c0,27.5,22.6,49.8,50.5,49.8
			c27.8,0,50.5-22.3,50.5-49.8C2577.6,1382.9,2554.9,1360.6,2527.1,1360.6z"/>
	</g>
	<ellipse fill="#3D414A" cx="2527.1" cy="1410.4" rx="8" ry="7.9"/>
	<path fill="#26292E" d="M2613.6,1410.4L2613.6,1410.4c0,12.8-2.9,24.9-7.9,35.7h-157.2c-5-10.7-7.9-22.7-7.9-35.3v-0.4
		c0-47.1,38.7-85.4,86.5-85.4C2574.9,1325,2613.6,1363.3,2613.6,1410.4z"/>
	<path fill="#26292E" d="M2084.6,1410.4L2084.6,1410.4c0,12.8-2.9,24.9-7.9,35.7h-157.2c-5-10.7-7.9-22.7-7.9-35.3v-0.4
		c0-47.1,38.7-85.4,86.5-85.4C2045.8,1325,2084.6,1363.3,2084.6,1410.4z"/>
	<ellipse fill="#3D414A" cx="2527.1" cy="1410.4" rx="70.5" ry="69.5"/>
	<ellipse fill="#ADA9A2" cx="2527.1" cy="1410.4" rx="11.4" ry="11.3"/>
	<g>
		<path fill="#ADA9A2" d="M2527.1,1461.3c-28.4,0-51.6-22.8-51.6-50.9c0-28.1,23.1-50.9,51.6-50.9c28.4,0,51.6,22.8,51.6,50.9
			C2578.7,1438.4,2555.5,1461.3,2527.1,1461.3z M2527.1,1360.6c-27.8,0-50.5,22.3-50.5,49.8c0,27.5,22.6,49.8,50.5,49.8
			c27.8,0,50.5-22.3,50.5-49.8C2577.6,1382.9,2554.9,1360.6,2527.1,1360.6z"/>
	</g>
	<ellipse fill="#3D414A" cx="2527.1" cy="1410.4" rx="8" ry="7.9"/>
	<ellipse fill="#3D414A" cx="1998.1" cy="1410.4" rx="70.5" ry="69.5"/>
	<ellipse fill="#ADA9A2" cx="1998.1" cy="1410.4" rx="11.4" ry="11.3"/>
	<g>
		<path fill="#ADA9A2" d="M1998.1,1461.3c-28.4,0-51.6-22.8-51.6-50.9c0-28.1,23.1-50.9,51.6-50.9c28.4,0,51.6,22.8,51.6,50.9
			C2049.6,1438.4,2026.5,1461.3,1998.1,1461.3z M1998.1,1360.6c-27.8,0-50.5,22.3-50.5,49.8c0,27.5,22.6,49.8,50.5,49.8
			c27.8,0,50.5-22.3,50.5-49.8C2048.5,1382.9,2025.9,1360.6,1998.1,1360.6z"/>
	</g>
	<ellipse fill="#3D414A" cx="1998.1" cy="1410.4" rx="8" ry="7.9"/>
	<linearGradient id="SVGID_10_" gradientUnits="userSpaceOnUse" x1="2713.6255" y1="1345.3519" x2="2651.1877" y2="1369.0685">
		<stop  offset="0" style="stop-color:#FFFAED"/>
		<stop  offset="0.4623" style="stop-color:#D9D5CA"/>
		<stop  offset="1" style="stop-color:#ADA9A2"/>
	</linearGradient>
	<path fill="url(#SVGID_10_)" d="M2658.4,1338v23.9l46,15.3c0,0,6.1-17.9,1.9-34.5L2658.4,1338z"/>
	<path fill="#3D414A" d="M1918.2,1388.8l-22.8,9.8l-3.1,48.5l13.6,7.7C1905.9,1454.8,1904.6,1417,1918.2,1388.8z"/>
	<rect x="1891.3" y="1404.6" fill="#CF7923" width="12.3" height="12.1"/>
	<path fill="#A8A59C" d="M2653.9,1358.6l-47.4-3.5l-0.1-0.7c-10.4-63.1-86.6-62.9-87.3-62.8l-0.9,0l-14.6-258l1.9,0.1l14.5,256
		c8.9,0.2,77.7,3.6,88.2,63.7l43.7,3.2v-25.8l18.1,0.5c-0.1-13-0.9-149.2-5.9-161.5c-5.3-13.2-19.4-126.6-20-131.4l2,0.1
		c0.1,1.2,14.6,117.6,19.8,130.6c5.3,13.3,6,157.1,6.1,163.2l0,1l-18.1-0.5V1358.6z"/>
	
		<rect x="2375.8" y="1007.3" transform="matrix(0.9987 5.078772e-002 -5.078772e-002 0.9987 54.4671 -126.9054)" fill="#A8A59C" width="297.1" height="1.9"/>
	<path fill="#A8A59C" d="M2477,1330.4l-112.1-7.2l0.1-1.9l111.4,7.2c3.8-2.7,41.9-28.5,91.9-7.1l-0.8,1.8
		c-51.4-22-89.9,6.8-90.3,7.1L2477,1330.4z"/>
	<path fill="#3D414A" d="M2668.2,1166.9c-0.1-0.8-6.2-83.4-8.4-105.1c-1.2-11.2-4.4-15-6.2-16.2c-1.5-1-3.6-0.8-6.6-0.7l-0.7-5.6
		c3.3-0.1,6.9-0.8,10.6,1.7c4.7,3.2,7.7,10,8.7,20.2c2.2,21.8,8.4,104.5,8.4,105.3L2668.2,1166.9z"/>
	<polygon fill="#3D414A" points="2667.8,1125.4 2642.6,1127.2 2638.1,1063.9 2662.9,1061.3 	"/>
	<rect x="2520.6" y="1166.9" fill="#A8A59C" width="16.8" height="27.8"/>
	<linearGradient id="SVGID_11_" gradientUnits="userSpaceOnUse" x1="2654.8716" y1="1355.6284" x2="2713.1663" y2="1330.0945">
		<stop  offset="0" style="stop-color:#F27B1F"/>
		<stop  offset="1" style="stop-color:#E8E3D8"/>
	</linearGradient>
	<polygon fill="url(#SVGID_11_)" points="2658.4,1338 2658.4,1361.9 2669.1,1365.5 2669.1,1339.1 	"/>
	<path fill="#508CF9" d="M552.8,308.3c0-31.6-25.6-57.2-57.2-57.2s-57.2,25.6-57.2,57.2c0,1.1,0,2.2,0.1,3.3h-0.1
		c0,43.6,57.2,111.9,57.2,111.9s57.2-68.3,57.2-111.9h-0.1C552.8,310.5,552.8,309.4,552.8,308.3z M495.6,345.4
		c-20.5,0-37.1-16.6-37.1-37.1c0-20.5,16.6-37.1,37.1-37.1c20.5,0,37.1,16.6,37.1,37.1C532.7,328.8,516.1,345.4,495.6,345.4z"/>
	<g>
		<linearGradient id="SVGID_12_" gradientUnits="userSpaceOnUse" x1="784.2273" y1="1756.9764" x2="1745.5854" y2="1756.9764">
			<stop  offset="0" style="stop-color:#40D5E6"/>
			<stop  offset="1" style="stop-color:#5577FF"/>
		</linearGradient>
		<polygon fill="url(#SVGID_12_)" points="1685.4,1644.6 1264.9,1644.6 844.4,1644.6 784.2,1869.4 1264.9,1869.4 1745.6,1869.4 		
			"/>
		<path fill="#FFFFFF" d="M851,1704.3h55c2.3,0,4,1.8,3.6,3.7l-5.3,23.9c-0.3,1.5-1.8,2.5-3.6,2.5h-56c-2.3,0-4.1-1.9-3.6-3.8
			l6.3-23.9C847.8,1705.3,849.3,1704.3,851,1704.3z"/>
		<polygon fill="#FFFFFF" points="931.3,1704.3 972.9,1704.3 967.3,1734.5 924.9,1734.5 		"/>
		<polygon fill="#FFFFFF" points="993.7,1704.3 1035.3,1704.3 1030.9,1734.5 988.5,1734.5 		"/>
		<polygon fill="#FFFFFF" points="1056.1,1704.3 1097.7,1704.3 1094.5,1734.5 1052.1,1734.5 		"/>
		<polygon fill="#FFFFFF" points="1118.5,1704.3 1160.1,1704.3 1158.1,1734.5 1115.7,1734.5 		"/>
		<polygon fill="#FFFFFF" points="1180.9,1704.3 1222.5,1704.3 1221.7,1734.5 1179.3,1734.5 		"/>
		<polygon fill="#FFFFFF" points="1680.2,1704.3 1617.8,1704.3 1624.6,1734.5 1688.2,1734.5 		"/>
		<polygon fill="#FFFFFF" points="1597,1704.3 1555.4,1704.3 1561,1734.5 1603.4,1734.5 		"/>
		<polygon fill="#FFFFFF" points="1534.6,1704.3 1493,1704.3 1497.4,1734.5 1539.8,1734.5 		"/>
		<polygon fill="#FFFFFF" points="1472.2,1704.3 1430.6,1704.3 1433.8,1734.5 1476.2,1734.5 		"/>
		<polygon fill="#FFFFFF" points="1409.8,1704.3 1368.2,1704.3 1370.2,1734.5 1412.6,1734.5 		"/>
		<polygon fill="#FFFFFF" points="1347.4,1704.3 1305.8,1704.3 1306.6,1734.5 1349,1734.5 		"/>
		<polygon fill="#FFFFFF" points="1243.3,1704.3 1284.9,1704.3 1285.6,1734.5 1243.3,1734.5 		"/>
		<polygon fill="#FFFFFF" points="832.7,1757 919.6,1757 914.7,1788.1 826.1,1788.1 		"/>
		<polygon fill="#FFFFFF" points="1693.8,1757 1586.4,1757 1592.5,1788.1 1702,1788.1 		"/>
		<polygon fill="#FFFFFF" points="1564.9,1757 1521.9,1757 1526.8,1788.1 1570.6,1788.1 		"/>
		<polygon fill="#FFFFFF" points="1500.4,1757 1457.4,1757 1461.1,1788.1 1504.9,1788.1 		"/>
		<polygon fill="#FFFFFF" points="1435.9,1757 1392.9,1757 1395.4,1788.1 1439.2,1788.1 		"/>
		<polygon fill="#FFFFFF" points="1371.5,1757 1328.5,1757 1329.7,1788.1 1373.5,1788.1 		"/>
		<polygon fill="#FFFFFF" points="819.7,1812.5 908.6,1812.5 902.1,1843.5 811.6,1843.5 		"/>
		<polygon fill="#FFFFFF" points="930.8,1812.5 975.2,1812.5 970,1843.5 924.7,1843.5 		"/>
		<polygon fill="#FFFFFF" points="997.5,1812.5 1041.9,1812.5 1330.7,1812.5 1332,1843.5 992.6,1843.5 		"/>
		<polygon fill="#FFFFFF" points="1353,1812.5 1397.4,1812.5 1399.8,1843.5 1354.6,1843.5 		"/>
		<polygon fill="#FFFFFF" points="1419.6,1812.5 1464.1,1812.5 1467.7,1843.5 1422.5,1843.5 		"/>
		<polygon fill="#FFFFFF" points="1486.3,1812.5 1530.7,1812.5 1535.6,1843.5 1490.3,1843.5 		"/>
		<polygon fill="#FFFFFF" points="1552.9,1812.5 1597.4,1812.5 1603.4,1843.5 1558.2,1843.5 		"/>
		<polygon fill="#FFFFFF" points="1619.6,1812.5 1708.5,1812.5 1716.6,1843.5 1626.1,1843.5 		"/>
		<polygon fill="#FFFFFF" points="1307.1,1757 1264.4,1757 1264.4,1788.1 1307.9,1788.1 		"/>
		<polygon fill="#FFFFFF" points="1242.6,1757 1199.6,1757 1198.4,1788.1 1242.2,1788.1 		"/>
		<polygon fill="#FFFFFF" points="1178.1,1757 1135.1,1757 1132.7,1788.1 1176.5,1788.1 		"/>
		<polygon fill="#FFFFFF" points="1113.6,1757 1070.7,1757 1067,1788.1 1110.8,1788.1 		"/>
		<polygon fill="#FFFFFF" points="1049.2,1757 1006.2,1757 1001.3,1788.1 1045.1,1788.1 		"/>
		<polygon fill="#FFFFFF" points="984.7,1757 941.7,1757 935.6,1788.1 979.4,1788.1 		"/>
		<polygon fill="#FFFFFF" points="853,1685.3 860.1,1658.3 880.3,1658.3 873.7,1685.3 		"/>
		<polygon fill="#FFFFFF" points="900.5,1658.3 940.9,1658.3 935.2,1685.3 894.1,1685.3 		"/>
		<polygon fill="#FFFFFF" points="961.1,1658.3 1001.5,1658.3 996.9,1685.3 955.8,1685.3 		"/>
		<polygon fill="#FFFFFF" points="1021.7,1658.3 1062.1,1658.3 1058.6,1685.3 1017.5,1685.3 		"/>
		<polygon fill="#FFFFFF" points="1082.3,1658.3 1122.7,1658.3 1120.2,1685.3 1079.1,1685.3 		"/>
		<polygon fill="#FFFFFF" points="1142.9,1658.3 1183.3,1658.3 1181.9,1685.3 1140.8,1685.3 		"/>
		<polygon fill="#FFFFFF" points="1203.5,1658.3 1243.9,1658.3 1243.5,1685.3 1202.4,1685.3 		"/>
		<polygon fill="#FFFFFF" points="1264.1,1658.3 1304.5,1658.3 1305.2,1685.3 1264.1,1685.3 		"/>
		<polygon fill="#FFFFFF" points="1324.7,1658.3 1365.1,1658.3 1366.8,1685.3 1325.7,1685.3 		"/>
		<polygon fill="#FFFFFF" points="1385.3,1658.3 1425.7,1658.3 1428.5,1685.3 1387.4,1685.3 		"/>
		<polygon fill="#FFFFFF" points="1445.9,1658.3 1486.3,1658.3 1490.2,1685.3 1449.1,1685.3 		"/>
		<polygon fill="#FFFFFF" points="1506.5,1658.3 1546.9,1658.3 1551.8,1685.3 1510.7,1685.3 		"/>
		<polygon fill="#FFFFFF" points="1567.1,1658.3 1607.5,1658.3 1613.5,1685.3 1572.4,1685.3 		"/>
		<polygon fill="#FFFFFF" points="1627.7,1658.3 1668.1,1658.3 1675.1,1685.3 1634,1685.3 		"/>
		<rect x="784.2" y="1869.4" fill="#547BFE" width="961.4" height="13.3"/>
	</g>
	<g>
		<rect x="1201.6" y="1168.4" fill="#547EFD" width="132.3" height="401.9"/>
	</g>
	<g>
		<linearGradient id="SVGID_13_" gradientUnits="userSpaceOnUse" x1="951.8129" y1="162.5587" x2="1473.6549" y2="1477.9442">
			<stop  offset="0" style="stop-color:#40D5E6"/>
			<stop  offset="1" style="stop-color:#5577FF"/>
		</linearGradient>
		<path fill="url(#SVGID_13_)" d="M728.7,1362h1078.1c17.8,0,32.2-14.4,32.2-32.2V588.2c0-17.8-14.4-32.2-32.2-32.2H728.7
			c-17.8,0-32.2,14.4-32.2,32.2v741.6C696.5,1347.6,711,1362,728.7,1362z"/>
	</g>
	<g>
		<rect x="736.9" y="595.5" fill="#FFFFFF" width="1059.7" height="620"/>
	</g>
	<g>
		<ellipse fill="#4163C7" cx="1717.1" cy="1293.5" rx="41.5" ry="36.9"/>
	</g>
	<linearGradient id="SVGID_14_" gradientUnits="userSpaceOnUse" x1="1267.785" y1="1456.4998" x2="1267.785" y2="1659.8145">
		<stop  offset="0" style="stop-color:#40D5E6"/>
		<stop  offset="1" style="stop-color:#5577FF"/>
	</linearGradient>
	<rect x="970.2" y="1555.1" fill="url(#SVGID_14_)" width="595.2" height="30.3"/>
	<g>
		<g>
			<g>
				<path fill="#323657" d="M782.8,1149.3C782.8,1149.3,782.8,1149.2,782.8,1149.3C783,1149.3,783,1149.4,782.8,1149.3z"/>
			</g>
		</g>
	</g>
	<g>
		<linearGradient id="SVGID_15_" gradientUnits="userSpaceOnUse" x1="2087.707" y1="903.1668" x2="1372.5753" y2="903.1668">
			<stop  offset="0" style="stop-color:#EDF4FF"/>
			<stop  offset="1" style="stop-color:#EDFFFE"/>
		</linearGradient>
		<path opacity="0.95" fill="url(#SVGID_15_)" d="M1957.5,1104.7h-331.3c-19.8,0-35.9-16.1-35.9-35.9V737.5
			c0-19.8,16.1-35.9,35.9-35.9h331.3c19.8,0,35.9,16.1,35.9,35.9v331.3C1993.4,1088.6,1977.4,1104.7,1957.5,1104.7z"/>
		<g>
			<path fill="#4BADCC" d="M1756.3,835.1c-4.8,0-9.3-0.8-13.5-2.5c-4.1-1.7-7.7-3.9-10.8-6.7c-3-2.8-5.5-6.1-7.3-9.9
				c-1.8-3.8-2.7-7.9-2.7-12.3c0-4.3,0.9-8.4,2.7-12.2c1.8-3.9,4.2-7.2,7.3-9.9c3-2.8,6.6-5,10.8-6.6c4.1-1.7,8.6-2.5,13.5-2.5
				c4.7,0,9.2,0.8,13.4,2.5c4.2,1.7,7.8,3.9,10.9,6.6c3,2.8,5.5,6.1,7.3,9.9c1.8,3.9,2.7,7.9,2.7,12.2c0,4.4-0.9,8.5-2.7,12.3
				c-1.8,3.8-4.2,7.1-7.3,9.9c-3,2.8-6.7,5.1-10.9,6.7C1765.5,834.3,1761,835.1,1756.3,835.1z M1733.7,911.8l58.5-68.2l53.9-70.9
				l12.6,11.2l-56.6,67l-55.8,72.1L1733.7,911.8z M1756.3,821.2c2.1,0,4-0.5,5.7-1.4c1.7-1,3.3-2.2,4.7-3.8c1.4-1.6,2.5-3.5,3.2-5.6
				c0.8-2.1,1.1-4.4,1.1-6.7c0-4.8-1.5-8.9-4.4-12.3c-2.9-3.4-6.4-5.1-10.4-5.1c-2.1,0-4,0.5-5.7,1.5c-1.7,1-3.3,2.2-4.7,3.8
				c-1.4,1.6-2.5,3.4-3.2,5.5c-0.8,2.1-1.1,4.3-1.1,6.6c0,4.8,1.5,9,4.4,12.4C1748.9,819.5,1752.3,821.2,1756.3,821.2z
				 M1836.3,923.6c-4.8,0-9.3-0.8-13.5-2.5c-4.1-1.7-7.7-3.9-10.8-6.6c-3-2.8-5.5-6-7.3-9.8c-1.8-3.8-2.7-7.9-2.7-12.3
				c0-4.4,0.9-8.5,2.7-12.3c1.8-3.8,4.2-7.1,7.3-9.9c3-2.8,6.6-5.1,10.8-6.7c4.1-1.7,8.6-2.5,13.5-2.5c4.8,0,9.3,0.8,13.5,2.5
				c4.1,1.7,7.8,3.9,10.9,6.7c3.1,2.8,5.5,6.2,7.3,9.9c1.7,3.8,2.6,7.9,2.6,12.3c0,4.4-0.9,8.5-2.6,12.3c-1.7,3.8-4.1,7.1-7.3,9.8
				c-3.1,2.8-6.7,5-10.9,6.6C1845.7,922.8,1841.2,923.6,1836.3,923.6z M1836.3,909.7c2.1,0,4-0.5,5.7-1.5c1.7-1,3.3-2.2,4.7-3.8
				c1.4-1.6,2.5-3.4,3.2-5.5c0.8-2.1,1.1-4.3,1.1-6.6c0-2.5-0.4-4.8-1.2-6.9c-0.8-2.1-1.9-4-3.2-5.6c-1.3-1.6-2.9-2.8-4.7-3.7
				c-1.8-0.9-3.7-1.3-5.6-1.3c-2.1,0-4,0.5-5.7,1.5c-1.7,1-3.3,2.2-4.7,3.8c-1.4,1.6-2.5,3.5-3.2,5.6c-0.8,2.1-1.1,4.4-1.1,6.7
				c0,4.8,1.5,8.9,4.4,12.3C1828.9,908.1,1832.3,909.7,1836.3,909.7z"/>
		</g>
		<g>
			<g>
				<polygon fill="#4BADCC" points="1706.1,968.6 1669.8,968.6 1669.8,932.3 1676.5,932.3 1676.5,961.9 1706.1,961.9 				"/>
			</g>
			<g>
				<polygon fill="#4BADCC" points="1922.9,968.6 1886.5,968.6 1886.5,961.9 1916.2,961.9 1916.2,932.3 1922.9,932.3 				"/>
			</g>
			<g>
				<polygon fill="#4BADCC" points="1676.5,781.1 1669.8,781.1 1669.8,744.8 1706.1,744.8 1706.1,751.5 1676.5,751.5 				"/>
			</g>
			<g>
				<polygon fill="#4BADCC" points="1922.9,781.1 1916.2,781.1 1916.2,751.5 1886.5,751.5 1886.5,744.8 1922.9,744.8 				"/>
			</g>
		</g>
		<linearGradient id="SVGID_16_" gradientUnits="userSpaceOnUse" x1="1049.5807" y1="903.1668" x2="343.4415" y2="903.1668">
			<stop  offset="0" style="stop-color:#EDF4FF"/>
			<stop  offset="1" style="stop-color:#EDFFFE"/>
		</linearGradient>
		<path opacity="0.95" fill="url(#SVGID_16_)" d="M574.7,701.6H906c19.8,0,35.9,16.1,35.9,35.9v331.3c0,19.8-16.1,35.9-35.9,35.9
			H574.7c-19.8,0-35.9-16.1-35.9-35.9V737.5C538.8,717.7,554.9,701.6,574.7,701.6z"/>
		<rect x="1686.6" y="1011.1" fill="#3F8BC0" width="186.6" height="13"/>
		<rect x="1686.6" y="1042.2" fill="#3F8BC0" width="127.7" height="13"/>
		<rect x="628.9" y="1006.7" fill="#3F8BC0" width="94.2" height="13"/>
		<rect x="628.9" y="1037.9" fill="#3F8BC0" width="139.4" height="13"/>
		<g>
			<path fill="#4BADCC" d="M683.1,829.7c-0.5-0.5-1.4-1.1-2.6-2c-1.3-0.8-2.8-1.6-4.6-2.4c-1.8-0.8-3.8-1.5-5.9-2
				c-2.1-0.6-4.3-0.8-6.5-0.8c-3.9,0-6.8,0.7-8.8,2.2c-1.9,1.4-2.9,3.5-2.9,6.1c0,1.5,0.4,2.8,1.1,3.8c0.7,1,1.8,1.9,3.1,2.6
				c1.4,0.8,3.1,1.4,5.2,2.1c2.1,0.6,4.5,1.3,7.3,2c3.6,1,6.8,2,9.8,3.1c2.9,1.1,5.4,2.5,7.4,4.1c2,1.7,3.6,3.6,4.7,5.9
				c1.1,2.3,1.7,5.1,1.7,8.5c0,3.9-0.7,7.3-2.2,10.1c-1.5,2.8-3.5,5-6,6.8c-2.5,1.7-5.4,3-8.7,3.8c-3.3,0.8-6.7,1.2-10.3,1.2
				c-5.5,0-10.9-0.8-16.3-2.5c-5.4-1.7-10.2-4-14.5-7l6.3-12.3c0.6,0.6,1.7,1.4,3.4,2.4c1.6,1,3.5,2,5.7,3c2.2,1,4.6,1.8,7.3,2.5
				c2.7,0.7,5.4,1,8.3,1c7.8,0,11.8-2.5,11.8-7.5c0-1.6-0.4-2.9-1.3-4c-0.9-1.1-2.2-2.1-3.8-2.9c-1.7-0.8-3.6-1.6-6-2.3
				c-2.3-0.7-5-1.4-7.8-2.3c-3.5-1-6.6-2-9.1-3.1c-2.6-1.1-4.7-2.5-6.5-4c-1.7-1.5-3-3.3-3.9-5.4c-0.9-2-1.3-4.5-1.3-7.3
				c0-3.7,0.7-7,2.1-9.9c1.4-2.9,3.3-5.3,5.7-7.2c2.4-1.9,5.3-3.4,8.5-4.4c3.2-1,6.7-1.5,10.4-1.5c5.2,0,9.9,0.8,14.2,2.4
				c4.3,1.6,8.1,3.5,11.4,5.7L683.1,829.7z"/>
			<path fill="#4BADCC" d="M716.1,884.8c-2.6,0-5.1-0.4-7.3-1.3c-2.3-0.9-4.2-2.1-5.9-3.6c-1.7-1.5-2.9-3.4-3.9-5.4
				c-0.9-2.1-1.4-4.3-1.4-6.8c0-2.5,0.6-4.9,1.7-7.1c1.1-2.2,2.7-4,4.7-5.5c2-1.5,4.5-2.7,7.3-3.6c2.8-0.9,5.9-1.3,9.3-1.3
				c2.4,0,4.8,0.2,7.1,0.6c2.3,0.4,4.4,1,6.1,1.8v-3.1c0-3.6-1-6.3-3-8.3c-2-1.9-5-2.9-9-2.9c-2.9,0-5.7,0.5-8.5,1.5
				c-2.8,1-5.6,2.5-8.5,4.5l-4.2-8.8c7-4.6,14.5-6.9,22.5-6.9c7.8,0,13.8,1.9,18.1,5.7c4.3,3.8,6.5,9.3,6.5,16.6v16.8
				c0,1.4,0.3,2.5,0.8,3.1c0.5,0.6,1.4,1,2.5,1v11.8c-2.3,0.5-4.4,0.7-6.1,0.7c-2.6,0-4.6-0.6-6-1.8c-1.4-1.2-2.3-2.7-2.6-4.6
				l-0.3-3c-2.4,3.2-5.3,5.6-8.8,7.2C723.7,884,720.1,884.8,716.1,884.8z M720.1,874.7c2.3,0,4.6-0.4,6.7-1.2
				c2.1-0.8,3.7-1.9,4.9-3.3c1.5-1.2,2.3-2.5,2.3-3.9V860c-1.7-0.6-3.4-1.1-5.4-1.5c-1.9-0.4-3.8-0.6-5.6-0.6
				c-3.6,0-6.5,0.8-8.8,2.4c-2.3,1.6-3.4,3.7-3.4,6.1c0,2.3,0.9,4.3,2.7,5.8C715.2,873.9,717.4,874.7,720.1,874.7z"/>
			<path fill="#4BADCC" d="M760.5,808.4h13.8v58c0,2,0.5,3.5,1.4,4.6c1,1.1,2.3,1.7,4.1,1.7c0.8,0,1.7-0.1,2.7-0.4
				c1-0.3,1.9-0.6,2.8-1l1.9,10.5c-1.9,0.9-4,1.6-6.5,2.1s-4.7,0.7-6.7,0.7c-4.3,0-7.7-1.2-10.1-3.5c-2.4-2.3-3.6-5.6-3.6-9.9V808.4
				z"/>
			<path fill="#4BADCC" d="M818.4,884.8c-4.3,0-8.3-0.7-11.8-2.2c-3.5-1.5-6.5-3.5-9-6c-2.5-2.5-4.4-5.5-5.7-8.9
				c-1.3-3.4-2-6.9-2-10.6c0-3.9,0.7-7.5,2-10.9c1.3-3.4,3.2-6.4,5.7-9c2.5-2.6,5.5-4.6,9-6.1c3.5-1.5,7.5-2.3,11.9-2.3
				c4.4,0,8.3,0.8,11.8,2.3c3.5,1.5,6.4,3.5,8.9,6.1c2.4,2.5,4.3,5.5,5.6,8.9c1.3,3.4,1.9,6.9,1.9,10.5c0,0.9,0,1.8-0.1,2.6
				c0,0.8-0.1,1.5-0.3,2.1h-41.8c0.2,2.1,0.7,4,1.5,5.7c0.8,1.7,1.9,3.1,3.2,4.2c1.3,1.2,2.8,2.1,4.4,2.7c1.7,0.6,3.4,0.9,5.2,0.9
				c2.8,0,5.3-0.7,7.8-2c2.4-1.3,4.1-3.1,5-5.3l11.9,3.3c-2,4.1-5.2,7.5-9.5,10.2C829.7,883.5,824.5,884.8,818.4,884.8z
				 M832.5,852.2c-0.3-4.1-1.8-7.3-4.5-9.8c-2.6-2.4-5.9-3.7-9.7-3.7c-1.9,0-3.6,0.3-5.2,1c-1.6,0.7-3,1.6-4.3,2.7
				c-1.2,1.2-2.3,2.6-3,4.2c-0.8,1.7-1.3,3.5-1.4,5.5H832.5z"/>
		</g>
		<linearGradient id="SVGID_17_" gradientUnits="userSpaceOnUse" x1="1764.921" y1="903.1667" x2="813.0186" y2="903.1667">
			<stop  offset="0" style="stop-color:#EDF4FF"/>
			<stop  offset="1" style="stop-color:#EDFFFE"/>
		</linearGradient>
		<path opacity="0.95" fill="url(#SVGID_17_)" d="M1498.7,1171h-463.9c-19.8,0-35.9-16.1-35.9-35.9V671.2
			c0-19.8,16.1-35.9,35.9-35.9h463.9c19.8,0,35.9,16.1,35.9,35.9v463.9C1534.6,1154.9,1518.5,1171,1498.7,1171z"/>
		<g>
			<g>
				<polygon fill="#4BADCC" points="1176.6,930.6 1140.2,930.6 1140.2,894.2 1146.9,894.2 1146.9,923.9 1176.6,923.9 				"/>
			</g>
			<g>
				<polygon fill="#4BADCC" points="1393.3,930.6 1357,930.6 1357,923.9 1386.6,923.9 1386.6,894.2 1393.3,894.2 				"/>
			</g>
			<g>
				<polygon fill="#4BADCC" points="1146.9,713.9 1140.2,713.9 1140.2,677.5 1176.6,677.5 1176.6,684.2 1146.9,684.2 				"/>
			</g>
			<g>
				<polygon fill="#4BADCC" points="1393.3,713.9 1386.6,713.9 1386.6,684.2 1357,684.2 1357,677.5 1393.3,677.5 				"/>
			</g>
		</g>
		<g>
			<path fill="#4BADCC" d="M1359,896.3h-184.5V711.8H1359V896.3z M1191.7,879.1h150.2V729h-150.2V879.1z"/>
		</g>
		<g>
			<rect x="1195.9" y="752.3" fill="#4BADCC" width="141.6" height="21.5"/>
		</g>
		<g>
			<path fill="#4BADCC" d="M1396.5,1107c-32.5,0-59-26.5-59-59c0-32.5,26.5-59,59-59c32.5,0,59,26.5,59,59
				C1455.6,1080.5,1429.1,1107,1396.5,1107z M1396.5,1000.4c-26.2,0-47.6,21.4-47.6,47.6c0,26.2,21.4,47.6,47.6,47.6
				c26.2,0,47.6-21.4,47.6-47.6C1444.1,1021.7,1422.8,1000.4,1396.5,1000.4z"/>
		</g>
		<g>
			<polygon fill="#4BADCC" points="1392.8,1071.2 1366,1044.4 1374,1036.3 1392.8,1055.1 1419,1028.8 1427.1,1036.9 			"/>
		</g>
		<g>
			<rect x="1248.6" y="951.3" fill="#4BADCC" width="36.2" height="6.7"/>
		</g>
		<rect x="1077.8" y="1025.9" fill="#3F8BC0" width="210.6" height="13"/>
		<rect x="1077.8" y="1057.1" fill="#3F8BC0" width="99.8" height="13"/>
	</g>
	<g>
		<g>
			<g>
				<g>
					<path fill="#6069A8" d="M1816.3,760.4c0,0,17.4,29.5,24.7,34.3c10,6.5,3.7,13.1-1,13.2c-4.7,0-28.9,1.7-34.2-4.3
						c-5.3-6-8-24.2-12.9-28.9c-5-4.7-10.1-23.6,2.4-28.2C1806.3,742.4,1816.3,760.4,1816.3,760.4z"/>
				</g>
			</g>
		</g>
		<g>
			<g>
				<g>
					<path fill="#202338" d="M1808.7,747.4c0,0,19.9,34.5,23.3,39.6c3.4,5.1-6.5,5.1-12.6,2.7c-6.1-2.4-21.6-27.2-23.8-31.7
						c-2.6-5.4-0.5-11.5-0.5-11.5L1808.7,747.4z"/>
				</g>
			</g>
		</g>
		<g>
			<g>
				<g>
					<polygon fill="#6069A8" points="1788.5,766 1793.1,801.4 1795.6,801.5 1794.8,776 					"/>
				</g>
			</g>
		</g>
		<g>
			<g>
				<g>
					<path fill="#6069A8" d="M1643.8,760.4c0,0,17.4,29.5,24.7,34.3c10,6.5,3.7,13.1-1,13.2c-4.7,0-28.9,1.7-34.2-4.3
						c-5.3-6-8-24.2-12.9-28.9c-5-4.7-10.2-24.1,2.4-28.2C1633.9,742.9,1643.8,760.4,1643.8,760.4z"/>
				</g>
			</g>
		</g>
		<g>
			<g>
				<g>
					<path fill="#202338" d="M1637.3,747.5c0,0,18.9,34.5,22.3,39.6c3.4,5.1-6.5,5.1-12.6,2.7c-6.1-2.4-21.6-27.2-23.8-31.7
						c-2.6-5.4-0.5-11.5-0.5-11.5L1637.3,747.5z"/>
				</g>
			</g>
		</g>
		<g>
			<g>
				<g>
					<polygon fill="#6069A8" points="1616.1,766 1620.7,801.4 1623.1,801.5 1622.4,776 					"/>
				</g>
			</g>
		</g>
		<g>
			<g>
				<g>
					<path fill="#202338" d="M1566.6,492.1l157.4,71.7c0,0,17.6,5.7,19.5,25.2c6.1,60.9,51.7,157.5,51.7,157.5
						c14.6,7.1,13.5,0.9,13.5,0.9c-9.2-29.6-20.4-151.4-24.4-200.4c-0.8-10.4-1.4-17.5-1.5-19.7c-0.1-1.5-1.8-3.6-4.7-5.9
						c-21.6-17.5-110.4-53.8-110.4-53.8C1601,465.9,1566.6,492.1,1566.6,492.1z"/>
				</g>
			</g>
		</g>
		<g>
			<g>
				<g>
					<path fill="#202338" d="M1537,522.9c4.9,42.5,65.6,37.7,65.6,37.7h73.6c0,0-19.3,43-26.8,79.3c-7.9,38.5-26.6,106.6-26.6,106.6
						s1.2,2.3,14.5,1c0,0,57.8-115.1,79.9-144.1c4.8-6.2,18.4-40,20.7-60.2c0.8-6.8,0.3-12-2.2-14.2c-2.6-2.1-8.4-6.2-16.2-11.1
						c-23-14.5-63.1-36.9-85.4-41.9c-29.9-6.7-77.1-19.3-77.1-19.3S1532.1,480.3,1537,522.9z"/>
				</g>
			</g>
		</g>
		<g>
			<path fill="#464240" d="M1587.1,195.2c0,0-11-20.9-5.6-43.2c5.4-22.3,26-44.5,56.3-34.3c30.3,10.2,54.7,33.7,36.6,60.9
				c-18.1,27.2,16.4,39.5,7.6,52.4c-8.8,12.9-5.5,26.4-1.7,29.4c3.7,3,15.8,13.7,14.4,26.4c-1.3,12.7-58.7-37-58.7-37
				S1604.6,187.1,1587.1,195.2z"/>
		</g>
		<g>
			<path fill="#EB4747" d="M1679.3,462.5c0,0-4.6,22.1-122.1-5.8C1557.2,456.7,1596.6,443.6,1679.3,462.5z"/>
		</g>
		<g>
			<g>
				<path fill="#325BB3" d="M1555.9,462.9c-1.8,3.5-3.6,7-5.5,10.4c43,1.3,85.9,2.5,128.9,3.8c-6.8-22.8-4.6-53.6-3.4-77
					c1.5-28.6,17.2-48.4,15.6-77.3c8.5,1.4,10,1.6,18.5,2.9c-13-37.1-17.5-55.5-57.9-69.7c-13.2-4.6-21.8-5.6-36.1-4.4
					c-46.8,3.9-61,4.4-84,46.9c36,5.7,30.1,18.7,41,54.5c5.3,17.5,10.9,37,8,55.4C1578.2,426.5,1555.9,446.4,1555.9,462.9z"/>
			</g>
		</g>
		<g>
			<g>
				<path fill="#EEA886" d="M1630.6,265c-19.2-3.6-15.1-14.3-15.1-14.3s0.9-6,1.2-13.6c0.1-1.9,0.1-4,0.1-6.1c0-3.2-0.2-6.4-0.5-9.4
					c-1.6-12.9,34.8-5.2,34.8-5.2s-2.1,26,2.9,33.8C1659.1,258,1649.8,268.6,1630.6,265z"/>
			</g>
		</g>
		<g>
			<g>
				<path fill="#EEA886" d="M1594,250.6c0,0,38.7,44.6,53,55c0,0,16.4-14.8,6.3-54C1653.3,251.6,1634.6,242.2,1594,250.6z"/>
			</g>
		</g>
		<g>
			<path fill="#EEA886" d="M1595.1,143.2c0,0-20.1,38.7-0.2,75.3c19.9,36.6,59-16,61.6-22.1c2.5-6.2,15.9-41.1-10.7-51.7
				C1619.1,134.1,1600.8,132.7,1595.1,143.2z"/>
		</g>
		<g>
			<path fill="#464240" d="M1601.8,156.9c0,0-13.8,18.2-15.5,31.6c0,0-5.5-25.4,10.1-49.7c15.6-24.4,55.1-1.2,60.4,8.6
				c5.3,9.7,20.8,18.3-5.3,60.2C1651.5,207.5,1604.6,174.9,1601.8,156.9z"/>
		</g>
		<g>
			<path fill="#A77860" d="M1633.9,222.4c0,0-3.5,7.6-17.1,14.7c0.1-1.9,0.1-4,0.1-6.1C1616.9,231,1626.1,229.9,1633.9,222.4z"/>
		</g>
		<g>
			<path fill="#EEA886" d="M1430.9,428.1c0,0-9.5,4.2-14.1,2.3c-4.5-1.9-11.5-2.3-13.7-2.3c-3,0-12.2-3.3-12,0.3
				c0.2,3.6,15,6.1,18,7.3c3,1.1-9.1,7.8-10.2,10.8c-1.1,3,12.6,22.4,20.3,16.9c7.7-5.5,11.9-16.6,13.5-17.3
				c1.6-0.7,5.8-3.8,5.8-3.8L1430.9,428.1z"/>
		</g>
		<g>
			<path fill="#EEA886" d="M1400.4,444.7c0,0-22.4,18.6-22.7,21.1c-0.4,2.5,0.8,3.7,3,2c2.2-1.6,22.2-17.3,22.2-17.3
				s-22.4,26.5-23.2,28.5c-0.4,1.2,1.7,3.5,3,2.8c1.3-0.8,25.1-25.7,25.1-25.7s-20.9,24.8-21,26.6c-0.1,1.6,2.4,3.4,4.1,1.6
				c1.7-1.7,22.5-23.6,22.5-23.6s-14,19-13.1,20.7c0.5,1,2.3,3.2,5.7-1.9c3.4-5,12.9-16,12.9-16L1400.4,444.7z"/>
		</g>
		<g>
			<g>
				<path fill="#FF7E55" d="M1668.5,560.5h-65.9c0,0-60.7,4.9-65.6-37.7c-4.9-42.5,20-66.2,20-66.2s32.1,8.5,60.1,15.3
					c14-3,30.9-4.9,50.7-4.4c0,0,118.7,39.2,115.1,59.9C1782.8,527.5,1733.2,500.9,1668.5,560.5z"/>
			</g>
		</g>
		<g>
			<polygon fill="#5E5853" points="1625.6,486.9 1751.3,485 1687.8,517.3 			"/>
		</g>
		<g>
			<path fill="#325BB3" d="M1664.6,470.8c0,0-28.3,10.9-62.9,1l-1.6-12.9l71.3,4L1664.6,470.8z"/>
		</g>
		<g>
			<polygon fill="#91887F" points="1687.8,517.3 1625.6,493.2 1625.6,486.9 1692.7,511.1 			"/>
		</g>
		<g>
			<g>
				<path fill="#EDDAD3" d="M1664.2,476.8c-0.3,4.6,4.4,8,8.6,6.2l7.3-3.1c2.2-0.9,3.5-3.2,3.1-5.6c-3-19-9.6-93,0-105.7
					c3.5-4.7,5.7-8.8,7-12.4c6.3,16.2,14.1,37.1,17.2,48.3l59.4,79l19.9,5c-24.8-59.9-44.8-91.6-44.8-91.6
					c-3.9-10.4-15-42-24.9-70.2c-6.2-17.8-12-34.1-15-42.9c-1.6-4.5-4.6-8.2-8.7-10.6c-9.2-5.5-24.5-14.2-38.4-20.9
					c-0.1,0-0.1-0.1-0.2-0.1c-0.4-0.2-0.9-0.4-1.3-0.6c0,0,0,0,0,0c0,0,0,0,0,0c26.4,40,16.1,152.9,10.9,225.1
					C1664.2,476.7,1664.2,476.8,1664.2,476.8z"/>
			</g>
			<g>
				<path fill="#EDDAD3" d="M1566.1,255c-8.5,1.3-29.4,21.7-40.6,42.2c-12.7,23.5-25.7,50.2-35.4,59c-17.8,16.2-67.8,73.3-70.2,71.9
					c-0.9-0.5,13.7,17.1,15.6,17.9c0.9,0.4,82.1-69.9,89.9-80.6c7.4-10.2,27.2-52.8,33.1-51.9c0,0,0,0,0,0c0,0,0,0,0,0
					c0.4,1,7.6,16.6,14.5,39.3c0.1,0.4,0.2,0.8,0.3,1.1c4.7,15.9,4.3,33.1,1.7,52.5c-1.9,14.6-12.8,38.6-19.4,50.2
					c-0.8,1.4-0.6,4.1,0.3,6.1c0,0,0,0,0,0c0.5,1.2,1.3,2.2,2.2,2.5l23.8,8.8l5.6,2.1c4,1.5,8.3,0.7,11.4-1.6
					c2.6-1.9,4.5-4.8,4.9-8.3c5.3-40.8,12-82.4,17.3-98.1c23.4-68.8-9.2-120.5-9.2-120.5S1573.5,252.2,1566.1,255z"/>
			</g>
		</g>
		<g>
			<polygon fill="#6E6760" points="1687.8,517.3 1725.2,415.2 1845.7,417.2 1810.1,511.2 			"/>
		</g>
		<g>
			
				<ellipse transform="matrix(-0.8943 -0.4474 0.4474 -0.8943 3150.4111 1673.9049)" fill="#807066" cx="1772.9" cy="464.9" rx="10.2" ry="14.9"/>
		</g>
		<g>
			<path fill="#464240" d="M1636.7,181.7c0,0,7.7,12,0.6,22.4c-7.1,10.4,1.8,20.5,3.3,31.5c1.5,11-29.8,40.1,5.1,54.8
				c34.8,14.7,45.9-9.6,37-22.9c-8.9-13.3-15.2-24.2-15.9-43.2C1666,205.2,1659.8,175.6,1636.7,181.7z"/>
		</g>
		<g>
			<polygon fill="#78C2FF" points="1384.4,37.6 1532.9,37.6 1532.9,145.2 1532.9,167.8 1510.2,145.2 1384.4,145.2 			"/>
		</g>
	</g>
	<g>
		<g>
			<polygon fill="#5380FD" points="2397.5,751.8 2148.9,751.8 2148.9,931.9 2148.9,969.9 2186.9,931.9 2397.5,931.9 			"/>
		</g>
	</g>
	<g>
		<path fill="#E64646" d="M454.5,1204.3c-7.8-26.8,16.4-57.4,16.4-57.4c-14.8-13.9-34-19.2-42.2-20.6c-8.2-1.4-31.3-6.3-31.3-6.3
			h-18.6h-18.6c0,0-23.9,4.6-31.8,6c-8.2,1.4-26.8,8.4-39.5,19.9c0,0,21.5,36.1,13.7,62.9c0,0,6.3,43.4,10,59.8
			c1.9,8.4,0.1,34.8-0.1,41.7c-0.2,9.9-1.7,38.1-3.7,62.3c0,0,22.3,13.3,70,14.4c47.3-3.1,71.2-14.4,71.2-14.4
			c-3-28.8-4.9-53.1-6.1-62.5c-0.9-6.9,0.3-32.9,1.1-41.5C446.1,1256.7,454.5,1204.3,454.5,1204.3z"/>
		<path fill="#EEA886" d="M401.1,1092.8c0,0-2.7,16.8,2.8,28.1c0,0,5.9,26.5-21.3,28.3c-27.2,1.8-28.4-28-28.4-28s6.3-3.4,1.4-27.2
			C350.8,1070.2,401.1,1092.8,401.1,1092.8z"/>
		<g>
			<path fill="#EEA886" d="M382.4,996.5c0,0,35,4.9,30.9,60.8c-4.1,56-34.9,52.1-37,52c-2.1,0-30.9,1.7-34.6-66.4
				C341.7,1042.9,339.6,992.5,382.4,996.5z"/>
		</g>
		<g>
			<path fill="#EEA886" d="M413.5,1041.5c0,0,3.7-4.3,5.2-0.1c1.5,4.2-4.5,22.5-4.9,24.1c0,0-0.7,1.7-1.6,0.8
				C411.2,1065.4,413.5,1041.5,413.5,1041.5z"/>
		</g>
		<g>
			<path fill="#EEA886" d="M342.5,1042.3c0,0-3.8-4.2-5.2,0.1c-1.4,4.2,5.2,23.2,5.5,23.9c0,0,0.7,1.6,1.6,0.7
				C345.3,1066.2,342.5,1042.3,342.5,1042.3z"/>
		</g>
		<g>
			<path fill="#E8734D" d="M413.6,1050l-4.8,6.9c0,0-0.2-15-1-17.3c-0.9-2.3,0.7-10.5,0-12.2c-0.7-1.7-23.7,5.1-61.8,2.1
				c0,0,4.5,13.4,2.1,14.4c-2.5,1-0.9,17.6-0.9,17.6l-4.2-4.6c0,0-5.3-28.2-4.9-33c0.5-6.3-2.3-35.6,51.2-31.8
				c6.1,0.4,12.1,2.6,17,6.3c5.6,4.2,11.4,10.7,11.1,19.9C417,1030.5,413.6,1050,413.6,1050z"/>
		</g>
		<path fill="#A77860" d="M361.1,1100.5c0,0,14.5,16.2,36.5-0.8c0,0-6,12.6-19.2,13.2C365.2,1113.5,361.1,1100.5,361.1,1100.5z"/>
		<path fill="#4754CC" d="M380.2,1447.6l75.6-14c0,0-4.7-53.1-5.4-60.7c-0.6-6.6-7.1-70.2-5.7-104.3c0,0-16.7-20.3-18.7-41.7
			l-46.5-0.6h-0.4l-46.6,1.1c-2,21.4-20,41.2-20,41.2c0.4,36.1-3.7,97.8-4.2,104.3c-0.7,7.6-9.3,58.7-9.3,58.7l79.5,16v0.4l0.8-0.2
			l0.8,0.2L380.2,1447.6z"/>
		<g>
			<path fill="#163342" d="M287.1,1802.6c0,0-4.8,11.6-8.9,16.2c-4.1,4.6-19.6,12.8-19.7,26.5c-0.1,14.8,26.2,10.7,36.5,10.2
				c10.3-0.5,11.1-8.5,15.4-16.8c4.3-8.4,8.7-7,9.5-13.7c0.8-6.8-3.3-21.9-3.3-21.9L287.1,1802.6z"/>
		</g>
		<g>
			<path fill="#2F6B8C" d="M286.7,1798.3l0.8,7.6c0,0,13.9,5.2,29.1,0l-0.1-9.6L286.7,1798.3z"/>
		</g>
		<g>
			<path fill="#163342" d="M442.1,1802.6c0,0,4.8,11.6,8.9,16.2s19.6,12.8,19.7,26.5c0.1,14.8-26.2,10.7-36.5,10.2
				c-10.3-0.5-11.1-8.5-15.4-16.8c-4.3-8.4-8.7-7-9.5-13.7c-0.8-6.8,3.3-21.9,3.3-21.9L442.1,1802.6z"/>
		</g>
		<g>
			<path fill="#2F6B8C" d="M442.6,1798.3l-0.8,7.6c0,0-13.9,5.2-29.1,0l0.1-9.6L442.6,1798.3z"/>
		</g>
		<g>
			<path fill="#4754CC" d="M464.4,1608.4c0,18.3-16.7,192-16.7,192c-1.8,6.1-33.4,5.7-39.5,2.7c-6.1-3,5.1-184.3,4-202.8
				c-1.1-18.4-33.6-147.1-38.9-146.5c-5.3,0.6-33,159.4-37.3,173.4c-4.3,14-15.9,175-15.9,175c-13.4,7.9-38.5,0.3-38.5,0.3
				s2-180.1,3.8-185c1.8-4.9,1.4-18.9,2-64.5c0.5-34.1,13.1-133.4,19.4-181.5c0.2-1.7,0.4-3.4,0.7-4.9c1.2-9.3,2.2-16.2,2.6-19.5
				c0.2-1.4,0.3-2.2,0.3-2.2c1.7-0.8,3.5-1.5,5.4-2.2c44.6-16,130.5,0.9,130.5,0.9s0,0.4,0.1,1.2c0.1,1,0.3,2.5,0.5,4.4
				c0.5,4.2,1.2,10.5,2.1,17.9c0,0.1,0,0.1,0,0.2c0,0.2,0.1,0.4,0.1,0.7c3,26,7.2,64.2,6.8,68.2
				C455.3,1442.3,464.4,1590.2,464.4,1608.4z"/>
		</g>
		<polygon fill="#3B45A8" points="401.1,1273.4 379.4,1273.4 357.7,1273.4 337.4,1293.7 337.4,1355.3 379.4,1355.3 421.4,1355.3 
			421.4,1293.7 		"/>
		<path fill="#E64646" d="M460.1,1225c0,0,9.5,56.9,8.1,66.6c-1.4,9.7-22.2,113.2-22.2,113.2l23.4,11c0,0,31.5-107.3,32-123.5
			c0.5-16.2-3.1-72-9-96.5c-5.8-24.5-13-41.2-25.7-53.2c-12.6-12-34.7-15.6-34.7-15.6L460.1,1225z"/>
		<path fill="#E64646" d="M298.7,1225c0,0-9.5,56.9-8.1,66.6c1.4,9.7,21,105.6,21,105.6l-22.1,18.6c0,0-31.5-107.3-32-123.5
			c-0.5-16.2,3.1-72,9-96.5c5.8-24.5,13-41.2,25.7-53.2c12.6-12,34.7-15.6,34.7-15.6L298.7,1225z"/>
		<path fill="#4754CC" d="M426.1,1226.9c0,0,2.1-56.3,24.2-94.5c0,0-3.9-3.8-12.3-4.1c0,0-21.3,51-22.6,98.5
			C414.1,1274.3,426.1,1226.9,426.1,1226.9z"/>
		<path fill="#4754CC" d="M332.6,1227.4c0,0-2.1-62.3-23-95.4c0,0,5.1-5.3,10.7-3.9c0,0,21.6,51.5,22.9,99.1
			C344.5,1274.7,332.6,1227.4,332.6,1227.4z"/>
		<path fill="#EEA886" d="M464.5,1422.5c0,0-8.8,11.8-25.3,11c-18.8-1-24.2-9.3-23-13C417.5,1416.9,461.8,1413.7,464.5,1422.5z"/>
		<path fill="#EEA886" d="M458.8,1427.7c0,0,14-4.6,11.6-8.3c-2.4-3.7-10.5,1.9-10.5,1.9L458.8,1427.7z"/>
		<path fill="#EEA886" d="M294.6,1422.5c0,0,8.8,11.8,25.3,11c18.8-1,24.2-9.3,23-13C341.6,1416.9,297.3,1413.7,294.6,1422.5z"/>
		<path fill="#EEA886" d="M300.3,1427.7c0,0-13.9-5-11.5-8.7c2.4-3.7,10.4,2.2,10.4,2.2L300.3,1427.7z"/>
		<rect x="271.4" y="1289.4" fill="#D88A51" width="215.3" height="131.1"/>
		<rect x="364.1" y="1289.4" fill="#FFA35F" width="26.6" height="13.3"/>
	</g>
	<g>
		<path fill="#E6D3CD" d="M690.5,1940.7c0,0-4.7,11.4-8.7,15.9c-4,4.5-19.2,12.6-19.3,26c-0.1,14.5,25.7,10.5,35.8,10
			c10.1-0.5,10.8-8.3,15.1-16.5c4.2-8.2,8.5-6.8,9.3-13.5c0.8-6.6-3.3-21.5-3.3-21.5L690.5,1940.7z"/>
		<g>
			<path fill="#E6D3CD" d="M928.2,1943.3c0,0,14,14.8,28.3,17.8c14.3,3.1,24.2,7,24.3,15.5c0.1,8.5-41,14-57.4,5.5
				c-24.4-12.7-26.8-8.9-29.5-15.3c-2.7-6.4,3.2-23.4,3.1-25.4C896.8,1938.9,928.2,1943.3,928.2,1943.3z"/>
		</g>
		<g>
			<path fill="#4754CC" d="M890.7,1517.3c0,0,14.8,107.2,20.8,143.4c7,42.4,9.4,77.4,11.4,99.3c2.5,27.6,7.2,172.6,8.9,180.6
				c1.7,8.1-38.6,4-38.6,4s-29.3-188-36.6-217.4c-6.9-27.3-25.7-140.1-32-132.6c-6.3,7.5-45.5,139.4-50.2,160.9
				c-4.6,21.6-49.3,190.4-49.3,190.4s-33.4,7.2-41.9,0.4c0,0,29.1-155.1,32.1-195.6c1.1-15.4,10.3-183.7,36.3-251.9
				C765.5,1463,890.7,1517.3,890.7,1517.3z"/>
		</g>
		<path fill="#E34658" d="M847.4,1260.3c0,0,39,8.1,43.7,12.2c5,4.4,13.9,47.1,14.4,59c0.5,11.9-4.7,61.7-9.7,80.2
			c-5,18.5-3.9,115.2-1.6,130.5c0,0-78.3,15.3-155.6,5.3c0,0,13.4-84,10.3-109.4c-4-32.5-13.5-107.5-13.5-107.5s10.3-50.5,17.2-56.3
			c6.9-5.8,54.7-15.3,54.7-15.3L847.4,1260.3z"/>
		<path fill="#EEA886" d="M831.3,1139.6c0,0,47-17.4,44,45c-2.9,62.4-13.9,68.8-44.8,60c-30.9-8.7-33.5-48.1-37.5-67.1
			C789,1158.6,815.9,1142.3,831.3,1139.6z"/>
		<path fill="#EEA886" d="M855.2,1270.2c0,0-24.4,19.8-47.9-11.2c0,0,1-25.1-6.2-48.6c-7.2-23.5,49.2,31.3,49.2,31.3
			c-0.6,0.4-0.7,2.8-0.4,6c0.3,2.8,0.9,6.2,1.8,9.7C853.8,1265.3,853.3,1263.9,855.2,1270.2z"/>
		<path fill="#163342" d="M799.5,1208.5c0,0-0.1-16.7,6.8-18.2c6.9-1.5,10.5,8.1,10.5,8.1l5.6-0.3c0,0-5-16.9,1.6-20.8
			c6.6-3.9,46.2-0.5,51.1-6.2c5-5.7-2.2-39.5-13-42.8c-10.8-3.3-40.3-10-59,6.6c0,0-16.8,0.1-16.7,20.2
			C786.4,1168.5,793.9,1199.5,799.5,1208.5z"/>
		<path fill="#A77860" d="M851.7,1257.4c-36.4-6.1-41.8-26.8-41.9-27.1c14.2,18.2,40.1,17.4,40.1,17.4
			C850.2,1250.5,850.8,1253.9,851.7,1257.4z"/>
		<path fill="#EEA886" d="M814.2,1183.3c-2.1-5.5-13.8-4.8-12.6,3.9c1.2,8.7,10.9,22.1,14.8,19.6
			C820.2,1204.3,817,1190.8,814.2,1183.3z"/>
		<path fill="#EEA886" d="M794.6,1261.7c0,0,22,44.5,54.4,40.9c32.4-3.6,13.6-34.7,10.5-39.6C859.6,1263,840.1,1250.5,794.6,1261.7z
			"/>
		<g>
			<path fill="#E34658" d="M959.8,1395.6c18.2,8.4,87.7,25.7,87.7,25.7l4.8-28.7c0,0-35.2-13.7-59.5-20c-11.8-3-23.5-7.3-25.3-8.2
				c-1.9-1-40.6-48-43.5-53.1c-2.9-5.2-9.9-22.1-20.1-31.4c-10.2-9.3-23.1-11.5-23.1-11.5c-25.6,21.7,9,62.7,9,62.7
				S934.3,1383.8,959.8,1395.6z"/>
		</g>
		<path fill="#504D59" d="M1243.8,1357.9H676.5c-11.5,0-20.9,9.3-20.9,20.9v408.5c0,11.5,9.3,20.9,20.9,20.9h567.2
			c11.5,0,20.9-9.3,20.9-20.9v-408.5C1264.6,1367.2,1255.3,1357.9,1243.8,1357.9z"/>
		<g>
			<path fill="#A89494" d="M1220.9,1795.1h-2.5v-0.6h2.5V1795.1z M1215.9,1795.1h-2.5v-0.6h2.5V1795.1z M1210.9,1795.1h-2.5v-0.6
				h2.5V1795.1z M1205.9,1795.1h-2.5v-0.6h2.5V1795.1z M1200.9,1795.1h-2.5v-0.6h2.5V1795.1z M1195.9,1795.1h-2.5v-0.6h2.5V1795.1z
				 M1190.9,1795.1h-2.5v-0.6h2.5V1795.1z M1185.9,1795.1h-2.5v-0.6h2.5V1795.1z M1180.9,1795.1h-2.5v-0.6h2.5V1795.1z
				 M1175.9,1795.1h-2.5v-0.6h2.5V1795.1z M1170.9,1795.1h-2.5v-0.6h2.5V1795.1z M1165.9,1795.1h-2.5v-0.6h2.5V1795.1z
				 M1160.9,1795.1h-2.5v-0.6h2.5V1795.1z M1155.9,1795.1h-2.5v-0.6h2.5V1795.1z M1150.9,1795.1h-2.5v-0.6h2.5V1795.1z
				 M1145.9,1795.1h-2.5v-0.6h2.5V1795.1z M1140.9,1795.1h-2.5v-0.6h2.5V1795.1z M1135.9,1795.1h-2.5v-0.6h2.5V1795.1z
				 M1130.9,1795.1h-2.5v-0.6h2.5V1795.1z M1125.9,1795.1h-2.5v-0.6h2.5V1795.1z M1120.9,1795.1h-2.5v-0.6h2.5V1795.1z
				 M1115.9,1795.1h-2.5v-0.6h2.5V1795.1z M1110.9,1795.1h-2.5v-0.6h2.5V1795.1z M1105.9,1795.1h-2.5v-0.6h2.5V1795.1z
				 M1100.8,1795.1h-2.5v-0.6h2.5V1795.1z M1095.8,1795.1h-2.5v-0.6h2.5V1795.1z M1090.8,1795.1h-2.5v-0.6h2.5V1795.1z
				 M1085.8,1795.1h-2.5v-0.6h2.5V1795.1z M1080.8,1795.1h-2.5v-0.6h2.5V1795.1z M1075.8,1795.1h-2.5v-0.6h2.5V1795.1z
				 M1070.8,1795.1h-2.5v-0.6h2.5V1795.1z M1065.8,1795.1h-2.5v-0.6h2.5V1795.1z M1060.8,1795.1h-2.5v-0.6h2.5V1795.1z
				 M1055.8,1795.1h-2.5v-0.6h2.5V1795.1z M1050.8,1795.1h-2.5v-0.6h2.5V1795.1z M1045.8,1795.1h-2.5v-0.6h2.5V1795.1z
				 M1040.8,1795.1h-2.5v-0.6h2.5V1795.1z M1035.8,1795.1h-2.5v-0.6h2.5V1795.1z M1030.8,1795.1h-2.5v-0.6h2.5V1795.1z
				 M1025.8,1795.1h-2.5v-0.6h2.5V1795.1z M1020.8,1795.1h-2.5v-0.6h2.5V1795.1z M1015.8,1795.1h-2.5v-0.6h2.5V1795.1z
				 M1010.8,1795.1h-2.5v-0.6h2.5V1795.1z M1005.8,1795.1h-2.5v-0.6h2.5V1795.1z M1000.8,1795.1h-2.5v-0.6h2.5V1795.1z
				 M995.8,1795.1h-2.5v-0.6h2.5V1795.1z M990.8,1795.1h-2.5v-0.6h2.5V1795.1z M985.8,1795.1h-2.5v-0.6h2.5V1795.1z M980.8,1795.1
				h-2.5v-0.6h2.5V1795.1z M975.8,1795.1h-2.5v-0.6h2.5V1795.1z M970.8,1795.1h-2.5v-0.6h2.5V1795.1z M965.8,1795.1h-2.5v-0.6h2.5
				V1795.1z M960.8,1795.1h-2.5v-0.6h2.5V1795.1z M955.8,1795.1h-2.5v-0.6h2.5V1795.1z M950.8,1795.1h-2.5v-0.6h2.5V1795.1z
				 M945.8,1795.1h-2.5v-0.6h2.5V1795.1z M940.8,1795.1h-2.5v-0.6h2.5V1795.1z M935.8,1795.1h-2.5v-0.6h2.5V1795.1z M930.8,1795.1
				h-2.5v-0.6h2.5V1795.1z M925.8,1795.1h-2.5v-0.6h2.5V1795.1z M920.8,1795.1h-2.5v-0.6h2.5V1795.1z M915.8,1795.1h-2.5v-0.6h2.5
				V1795.1z M910.8,1795.1h-2.5v-0.6h2.5V1795.1z M905.8,1795.1h-2.5v-0.6h2.5V1795.1z M900.7,1795.1h-2.5v-0.6h2.5V1795.1z
				 M895.7,1795.1h-2.5v-0.6h2.5V1795.1z M890.7,1795.1h-2.5v-0.6h2.5V1795.1z M885.7,1795.1h-2.5v-0.6h2.5V1795.1z M880.7,1795.1
				h-2.5v-0.6h2.5V1795.1z M875.7,1795.1h-2.5v-0.6h2.5V1795.1z M870.7,1795.1h-2.5v-0.6h2.5V1795.1z M865.7,1795.1h-2.5v-0.6h2.5
				V1795.1z M860.7,1795.1h-2.5v-0.6h2.5V1795.1z M855.7,1795.1h-2.5v-0.6h2.5V1795.1z M850.7,1795.1h-2.5v-0.6h2.5V1795.1z
				 M845.7,1795.1h-2.5v-0.6h2.5V1795.1z M840.7,1795.1h-2.5v-0.6h2.5V1795.1z M835.7,1795.1h-2.5v-0.6h2.5V1795.1z M830.7,1795.1
				h-2.5v-0.6h2.5V1795.1z M825.7,1795.1h-2.5v-0.6h2.5V1795.1z M820.7,1795.1h-2.5v-0.6h2.5V1795.1z M815.7,1795.1h-2.5v-0.6h2.5
				V1795.1z M810.7,1795.1h-2.5v-0.6h2.5V1795.1z M805.7,1795.1h-2.5v-0.6h2.5V1795.1z M800.7,1795.1h-2.5v-0.6h2.5V1795.1z
				 M795.7,1795.1h-2.5v-0.6h2.5V1795.1z M790.7,1795.1h-2.5v-0.6h2.5V1795.1z M785.7,1795.1h-2.5v-0.6h2.5V1795.1z M780.7,1795.1
				h-2.5v-0.6h2.5V1795.1z M775.7,1795.1h-2.5v-0.6h2.5V1795.1z M770.7,1795.1h-2.5v-0.6h2.5V1795.1z M765.7,1795.1h-2.5v-0.6h2.5
				V1795.1z M760.7,1795.1h-2.5v-0.6h2.5V1795.1z M755.7,1795.1h-2.5v-0.6h2.5V1795.1z M750.7,1795.1h-2.5v-0.6h2.5V1795.1z
				 M745.7,1795.1h-2.5v-0.6h2.5V1795.1z M740.7,1795.1h-2.5v-0.6h2.5V1795.1z M735.7,1795.1h-2.5v-0.6h2.5V1795.1z M730.7,1795.1
				h-2.5v-0.6h2.5V1795.1z M725.7,1795.1h-2.5v-0.6h2.5V1795.1z M720.7,1795.1h-2.5v-0.6h2.5V1795.1z M715.7,1795.1h-2.5v-0.6h2.5
				V1795.1z M710.7,1795.1h-2.5v-0.6h2.5V1795.1z M705.6,1795.1h-2.5v-0.6h2.5V1795.1z M700.6,1795.1h-2.4l-0.1-0.6h2.5V1795.1z
				 M1223.4,1795.1l0-0.6c0.8,0,1.6-0.1,2.5-0.3l0.1,0.6C1225.1,1795,1224.3,1795.1,1223.4,1795.1z M695.6,1795
				c-0.8-0.1-1.7-0.2-2.5-0.4l0.1-0.6c0.8,0.2,1.6,0.3,2.4,0.4L695.6,1795z M1228.4,1794.3l-0.2-0.6c0.8-0.2,1.6-0.5,2.4-0.7
				l0.2,0.6C1230,1793.9,1229.2,1794.1,1228.4,1794.3z M690.7,1794c-0.8-0.3-1.6-0.6-2.4-0.9l0.2-0.6c0.8,0.3,1.5,0.6,2.3,0.9
				L690.7,1794z M1233.2,1792.5l-0.3-0.6c0.7-0.4,1.5-0.8,2.2-1.2l0.3,0.5C1234.6,1791.8,1233.9,1792.2,1233.2,1792.5z M686,1792
				c-0.7-0.4-1.5-0.9-2.1-1.4l0.4-0.5c0.7,0.5,1.4,0.9,2.1,1.3L686,1792z M1237.4,1789.8l-0.4-0.5c0.6-0.5,1.3-1.1,1.9-1.6l0.4,0.5
				C1238.7,1788.8,1238.1,1789.3,1237.4,1789.8z M681.9,1789c-0.6-0.6-1.2-1.1-1.8-1.8l0.5-0.4c0.6,0.6,1.2,1.2,1.8,1.7L681.9,1789z
				 M1241.1,1786.3l-0.5-0.4c0.5-0.6,1-1.3,1.5-2l0.5,0.4C1242.1,1785,1241.6,1785.7,1241.1,1786.3z M678.4,1785.4
				c-0.5-0.7-1-1.4-1.4-2.1l0.5-0.3c0.4,0.7,0.9,1.4,1.4,2L678.4,1785.4z M1243.9,1782.2l-0.5-0.3c0.4-0.7,0.8-1.5,1.1-2.2l0.6,0.2
				C1244.7,1780.7,1244.3,1781.4,1243.9,1782.2z M675.8,1781c-0.4-0.8-0.7-1.5-1-2.3l0.6-0.2c0.3,0.8,0.6,1.5,1,2.3L675.8,1781z
				 M1245.9,1777.5l-0.6-0.2c0.2-0.8,0.4-1.6,0.6-2.4l0.6,0.1C1246.3,1775.9,1246.1,1776.7,1245.9,1777.5z M674.1,1776.3
				c-0.2-0.8-0.4-1.6-0.5-2.5l0.6-0.1c0.1,0.8,0.3,1.6,0.5,2.4L674.1,1776.3z M1246.8,1772.5l-0.6-0.1c0.1-0.7,0.1-1.4,0.1-2.2v-0.3
				h0.6v0.3C1246.9,1771,1246.9,1771.8,1246.8,1772.5z M673.4,1771.3c0-0.3,0-0.6,0-1v-1.5h0.6v1.5c0,0.3,0,0.6,0,1L673.4,1771.3z
				 M1246.9,1767.5h-0.6v-2.5h0.6V1767.5z M674,1766.3h-0.6v-2.5h0.6V1766.3z M1246.9,1762.5h-0.6v-2.5h0.6V1762.5z M674,1761.3
				h-0.6v-2.5h0.6V1761.3z M1246.9,1757.5h-0.6v-2.5h0.6V1757.5z M674,1756.3h-0.6v-2.5h0.6V1756.3z M1246.9,1752.5h-0.6v-2.5h0.6
				V1752.5z M674,1751.3h-0.6v-2.5h0.6V1751.3z M1246.9,1747.5h-0.6v-2.5h0.6V1747.5z M674,1746.3h-0.6v-2.5h0.6V1746.3z
				 M1246.9,1742.5h-0.6v-2.5h0.6V1742.5z M674,1741.3h-0.6v-2.5h0.6V1741.3z M1246.9,1737.5h-0.6v-2.5h0.6V1737.5z M674,1736.2
				h-0.6v-2.5h0.6V1736.2z M1246.9,1732.5h-0.6v-2.5h0.6V1732.5z M674,1731.2h-0.6v-2.5h0.6V1731.2z M1246.9,1727.5h-0.6v-2.5h0.6
				V1727.5z M674,1726.2h-0.6v-2.5h0.6V1726.2z M1246.9,1722.5h-0.6v-2.5h0.6V1722.5z M674,1721.2h-0.6v-2.5h0.6V1721.2z
				 M1246.9,1717.5h-0.6v-2.5h0.6V1717.5z M674,1716.2h-0.6v-2.5h0.6V1716.2z M1246.9,1712.5h-0.6v-2.5h0.6V1712.5z M674,1711.2
				h-0.6v-2.5h0.6V1711.2z M1246.9,1707.5h-0.6v-2.5h0.6V1707.5z M674,1706.2h-0.6v-2.5h0.6V1706.2z M1246.9,1702.5h-0.6v-2.5h0.6
				V1702.5z M674,1701.2h-0.6v-2.5h0.6V1701.2z M1246.9,1697.5h-0.6v-2.5h0.6V1697.5z M674,1696.2h-0.6v-2.5h0.6V1696.2z
				 M1246.9,1692.5h-0.6v-2.5h0.6V1692.5z M674,1691.2h-0.6v-2.5h0.6V1691.2z M1246.9,1687.5h-0.6v-2.5h0.6V1687.5z M674,1686.2
				h-0.6v-2.5h0.6V1686.2z M1246.9,1682.5h-0.6v-2.5h0.6V1682.5z M674,1681.2h-0.6v-2.5h0.6V1681.2z M1246.9,1677.5h-0.6v-2.5h0.6
				V1677.5z M674,1676.2h-0.6v-2.5h0.6V1676.2z M1246.9,1672.5h-0.6v-2.5h0.6V1672.5z M674,1671.2h-0.6v-2.5h0.6V1671.2z
				 M1246.9,1667.5h-0.6v-2.5h0.6V1667.5z M674,1666.2h-0.6v-2.5h0.6V1666.2z M1246.9,1662.5h-0.6v-2.5h0.6V1662.5z M674,1661.2
				h-0.6v-2.5h0.6V1661.2z M1246.9,1657.4h-0.6v-2.5h0.6V1657.4z M674,1656.2h-0.6v-2.5h0.6V1656.2z M1246.9,1652.4h-0.6v-2.5h0.6
				V1652.4z M674,1651.2h-0.6v-2.5h0.6V1651.2z M1246.9,1647.4h-0.6v-2.5h0.6V1647.4z M674,1646.2h-0.6v-2.5h0.6V1646.2z
				 M1246.9,1642.4h-0.6v-2.5h0.6V1642.4z M674,1641.2h-0.6v-2.5h0.6V1641.2z M1246.9,1637.4h-0.6v-2.5h0.6V1637.4z M674,1636.2
				h-0.6v-2.5h0.6V1636.2z M1246.9,1632.4h-0.6v-2.5h0.6V1632.4z M674,1631.2h-0.6v-2.5h0.6V1631.2z M1246.9,1627.4h-0.6v-2.5h0.6
				V1627.4z M674,1626.2h-0.6v-2.5h0.6V1626.2z M1246.9,1622.4h-0.6v-2.5h0.6V1622.4z M674,1621.2h-0.6v-2.5h0.6V1621.2z
				 M1246.9,1617.4h-0.6v-2.5h0.6V1617.4z M674,1616.2h-0.6v-2.5h0.6V1616.2z M1246.9,1612.4h-0.6v-2.5h0.6V1612.4z M674,1611.2
				h-0.6v-2.5h0.6V1611.2z M1246.9,1607.4h-0.6v-2.5h0.6V1607.4z M674,1606.2h-0.6v-2.5h0.6V1606.2z M1246.9,1602.4h-0.6v-2.5h0.6
				V1602.4z M674,1601.2h-0.6v-2.5h0.6V1601.2z M1246.9,1597.4h-0.6v-2.5h0.6V1597.4z M674,1596.2h-0.6v-2.5h0.6V1596.2z
				 M1246.9,1592.4h-0.6v-2.5h0.6V1592.4z M674,1591.2h-0.6v-2.5h0.6V1591.2z M1246.9,1587.4h-0.6v-2.5h0.6V1587.4z M674,1586.2
				h-0.6v-2.5h0.6V1586.2z M1246.9,1582.4h-0.6v-2.5h0.6V1582.4z M674,1581.2h-0.6v-2.5h0.6V1581.2z M1246.9,1577.4h-0.6v-2.5h0.6
				V1577.4z M674,1576.2h-0.6v-2.5h0.6V1576.2z M1246.9,1572.4h-0.6v-2.5h0.6V1572.4z M674,1571.2h-0.6v-2.5h0.6V1571.2z
				 M1246.9,1567.4h-0.6v-2.5h0.6V1567.4z M674,1566.2h-0.6v-2.5h0.6V1566.2z M1246.9,1562.4h-0.6v-2.5h0.6V1562.4z M674,1561.2
				h-0.6v-2.5h0.6V1561.2z M1246.9,1557.4h-0.6v-2.5h0.6V1557.4z M674,1556.2h-0.6v-2.5h0.6V1556.2z M1246.9,1552.4h-0.6v-2.5h0.6
				V1552.4z M674,1551.2h-0.6v-2.5h0.6V1551.2z M1246.9,1547.4h-0.6v-2.5h0.6V1547.4z M674,1546.2h-0.6v-2.5h0.6V1546.2z
				 M1246.9,1542.4h-0.6v-2.5h0.6V1542.4z M674,1541.2h-0.6v-2.5h0.6V1541.2z M1246.9,1537.4h-0.6v-2.5h0.6V1537.4z M674,1536.1
				h-0.6v-2.5h0.6V1536.1z M1246.9,1532.4h-0.6v-2.5h0.6V1532.4z M674,1531.1h-0.6v-2.5h0.6V1531.1z M1246.9,1527.4h-0.6v-2.5h0.6
				V1527.4z M674,1526.1h-0.6v-2.5h0.6V1526.1z M1246.9,1522.4h-0.6v-2.5h0.6V1522.4z M674,1521.1h-0.6v-2.5h0.6V1521.1z
				 M1246.9,1517.4h-0.6v-2.5h0.6V1517.4z M674,1516.1h-0.6v-2.5h0.6V1516.1z M1246.9,1512.4h-0.6v-2.5h0.6V1512.4z M674,1511.1
				h-0.6v-2.5h0.6V1511.1z M1246.9,1507.4h-0.6v-2.5h0.6V1507.4z M674,1506.1h-0.6v-2.5h0.6V1506.1z M1246.9,1502.4h-0.6v-2.5h0.6
				V1502.4z M674,1501.1h-0.6v-2.5h0.6V1501.1z M1246.9,1497.4h-0.6v-2.5h0.6V1497.4z M674,1496.1h-0.6v-2.5h0.6V1496.1z
				 M1246.9,1492.4h-0.6v-2.5h0.6V1492.4z M674,1491.1h-0.6v-2.5h0.6V1491.1z M1246.9,1487.4h-0.6v-2.5h0.6V1487.4z M674,1486.1
				h-0.6v-2.5h0.6V1486.1z M1246.9,1482.4h-0.6v-2.5h0.6V1482.4z M674,1481.1h-0.6v-2.5h0.6V1481.1z M1246.9,1477.4h-0.6v-2.5h0.6
				V1477.4z M674,1476.1h-0.6v-2.5h0.6V1476.1z M1246.9,1472.4h-0.6v-2.5h0.6V1472.4z M674,1471.1h-0.6v-2.5h0.6V1471.1z
				 M1246.9,1467.4h-0.6v-2.5h0.6V1467.4z M674,1466.1h-0.6v-2.5h0.6V1466.1z M1246.9,1462.3h-0.6v-2.5h0.6V1462.3z M674,1461.1
				h-0.6v-2.5h0.6V1461.1z M1246.9,1457.3h-0.6v-2.5h0.6V1457.3z M674,1456.1h-0.6v-2.5h0.6V1456.1z M1246.9,1452.3h-0.6v-2.5h0.6
				V1452.3z M674,1451.1h-0.6v-2.5h0.6V1451.1z M1246.9,1447.3h-0.6v-2.5h0.6V1447.3z M674,1446.1h-0.6v-2.5h0.6V1446.1z
				 M1246.9,1442.3h-0.6v-2.5h0.6V1442.3z M674,1441.1h-0.6v-2.5h0.6V1441.1z M1246.9,1437.3h-0.6v-2.5h0.6V1437.3z M674,1436.1
				h-0.6v-2.5h0.6V1436.1z M1246.9,1432.3h-0.6v-2.5h0.6V1432.3z M674,1431.1h-0.6v-2.5h0.6V1431.1z M1246.9,1427.3h-0.6v-2.5h0.6
				V1427.3z M674,1426.1h-0.6v-2.5h0.6V1426.1z M1246.9,1422.3h-0.6v-2.5h0.6V1422.3z M674,1421.1h-0.6v-2.5h0.6V1421.1z
				 M1246.9,1417.3h-0.6v-2.5h0.6V1417.3z M674,1416.1h-0.6v-2.5h0.6V1416.1z M1246.9,1412.3h-0.6v-2.5h0.6V1412.3z M674,1411.1
				h-0.6v-2.5h0.6V1411.1z M1246.9,1407.3h-0.6v-2.5h0.6V1407.3z M674,1406.1h-0.6v-2.5h0.6V1406.1z M1246.9,1402.3h-0.6v-2.5h0.6
				V1402.3z M674,1401.1h-0.6v-2.5h0.6V1401.1z M1246.9,1397.3h-0.6v-1.6c0-0.3,0-0.6,0-0.9l0.6,0c0,0.3,0,0.6,0,0.9V1397.3z
				 M674,1396.1h-0.6v-0.4c0-0.7,0-1.4,0.1-2.2l0.6,0.1c-0.1,0.7-0.1,1.4-0.1,2.1V1396.1z M1246.1,1392.4c-0.1-0.8-0.3-1.6-0.5-2.4
				l0.6-0.1c0.2,0.8,0.4,1.7,0.5,2.5L1246.1,1392.4z M674.4,1391.2l-0.6-0.1c0.2-0.8,0.4-1.7,0.6-2.5l0.6,0.2
				C674.8,1389.6,674.6,1390.4,674.4,1391.2z M1244.9,1387.6c-0.3-0.8-0.6-1.5-0.9-2.3l0.6-0.3c0.4,0.8,0.7,1.5,1,2.3L1244.9,1387.6
				z M675.8,1386.4l-0.6-0.2c0.3-0.8,0.7-1.5,1.1-2.3l0.5,0.3C676.5,1384.9,676.1,1385.7,675.8,1386.4z M1242.8,1383.1
				c-0.4-0.7-0.9-1.4-1.4-2l0.5-0.4c0.5,0.7,1,1.4,1.4,2.1L1242.8,1383.1z M678.2,1382.1l-0.5-0.4c0.5-0.7,1-1.4,1.5-2l0.5,0.4
				C679.1,1380.8,678.6,1381.4,678.2,1382.1z M1239.8,1379.2c-0.6-0.6-1.2-1.2-1.8-1.7l0.4-0.5c0.6,0.6,1.2,1.1,1.8,1.8
				L1239.8,1379.2z M681.4,1378.3l-0.4-0.4c0.6-0.6,1.2-1.1,1.9-1.7l0.4,0.5C682.6,1377.2,681.9,1377.8,681.4,1378.3z M1236.1,1376
				c-0.7-0.5-1.4-0.9-2.1-1.3l0.3-0.5c0.7,0.4,1.5,0.9,2.1,1.4L1236.1,1376z M685.2,1375.3l-0.3-0.5c0.7-0.5,1.4-0.9,2.2-1.2
				l0.3,0.6C686.6,1374.4,685.9,1374.8,685.2,1375.3z M1231.8,1373.5c-0.8-0.3-1.5-0.6-2.3-0.9l0.2-0.6c0.8,0.3,1.6,0.6,2.4,0.9
				L1231.8,1373.5z M689.6,1373.1l-0.2-0.6c0.8-0.3,1.6-0.6,2.4-0.8l0.2,0.6C691.2,1372.5,690.4,1372.8,689.6,1373.1z M1227.1,1372
				c-0.8-0.2-1.6-0.3-2.4-0.4l0.1-0.6c0.8,0.1,1.7,0.2,2.5,0.4L1227.1,1372z M694.4,1371.8l-0.1-0.6c0.8-0.1,1.7-0.2,2.5-0.3l0,0.6
				C696,1371.6,695.2,1371.7,694.4,1371.8z M1222.2,1371.5l-2.6,0v-0.6l2.6,0V1371.5z M1217.1,1371.5h-2.5v-0.6h2.5V1371.5z
				 M1212.1,1371.5h-2.5v-0.6h2.5V1371.5z M1207.1,1371.5h-2.5v-0.6h2.5V1371.5z M1202.1,1371.5h-2.5v-0.6h2.5V1371.5z
				 M1197.1,1371.5h-2.5v-0.6h2.5V1371.5z M1192.1,1371.5h-2.5v-0.6h2.5V1371.5z M1187.1,1371.5h-2.5v-0.6h2.5V1371.5z
				 M1182.1,1371.5h-2.5v-0.6h2.5V1371.5z M1177.1,1371.5h-2.5v-0.6h2.5V1371.5z M1172.1,1371.5h-2.5v-0.6h2.5V1371.5z
				 M1167.1,1371.5h-2.5v-0.6h2.5V1371.5z M1162.1,1371.5h-2.5v-0.6h2.5V1371.5z M1157.1,1371.5h-2.5v-0.6h2.5V1371.5z
				 M1152.1,1371.5h-2.5v-0.6h2.5V1371.5z M1147.1,1371.5h-2.5v-0.6h2.5V1371.5z M1142.1,1371.5h-2.5v-0.6h2.5V1371.5z
				 M1137.1,1371.5h-2.5v-0.6h2.5V1371.5z M1132.1,1371.5h-2.5v-0.6h2.5V1371.5z M1127.1,1371.5h-2.5v-0.6h2.5V1371.5z M1122,1371.5
				h-2.5v-0.6h2.5V1371.5z M1117,1371.5h-2.5v-0.6h2.5V1371.5z M1112,1371.5h-2.5v-0.6h2.5V1371.5z M1107,1371.5h-2.5v-0.6h2.5
				V1371.5z M1102,1371.5h-2.5v-0.6h2.5V1371.5z M1097,1371.5h-2.5v-0.6h2.5V1371.5z M1092,1371.5h-2.5v-0.6h2.5V1371.5z
				 M1087,1371.5h-2.5v-0.6h2.5V1371.5z M1082,1371.5h-2.5v-0.6h2.5V1371.5z M1077,1371.5h-2.5v-0.6h2.5V1371.5z M1072,1371.5h-2.5
				v-0.6h2.5V1371.5z M1067,1371.5h-2.5v-0.6h2.5V1371.5z M1062,1371.5h-2.5v-0.6h2.5V1371.5z M1057,1371.5h-2.5v-0.6h2.5V1371.5z
				 M1052,1371.5h-2.5v-0.6h2.5V1371.5z M1047,1371.5h-2.5v-0.6h2.5V1371.5z M1042,1371.5h-2.5v-0.6h2.5V1371.5z M1037,1371.5h-2.5
				v-0.6h2.5V1371.5z M1032,1371.5h-2.5v-0.6h2.5V1371.5z M1027,1371.5h-2.5v-0.6h2.5V1371.5z M1022,1371.5h-2.5v-0.6h2.5V1371.5z
				 M1017,1371.5h-2.5v-0.6h2.5V1371.5z M1012,1371.5h-2.5v-0.6h2.5V1371.5z M1007,1371.5h-2.5v-0.6h2.5V1371.5z M1002,1371.5h-2.5
				v-0.6h2.5V1371.5z M997,1371.5h-2.5v-0.6h2.5V1371.5z M992,1371.5h-2.5v-0.6h2.5V1371.5z M987,1371.5h-2.5v-0.6h2.5V1371.5z
				 M982,1371.5h-2.5v-0.6h2.5V1371.5z M977,1371.5h-2.5v-0.6h2.5V1371.5z M972,1371.5h-2.5v-0.6h2.5V1371.5z M967,1371.5h-2.5v-0.6
				h2.5V1371.5z M962,1371.5h-2.5v-0.6h2.5V1371.5z M957,1371.5h-2.5v-0.6h2.5V1371.5z M952,1371.5h-2.5v-0.6h2.5V1371.5z
				 M947,1371.5h-2.5v-0.6h2.5V1371.5z M942,1371.5h-2.5v-0.6h2.5V1371.5z M937,1371.5h-2.5v-0.6h2.5V1371.5z M932,1371.5h-2.5v-0.6
				h2.5V1371.5z M926.9,1371.5h-2.5v-0.6h2.5V1371.5z M921.9,1371.5h-2.5v-0.6h2.5V1371.5z M916.9,1371.5h-2.5v-0.6h2.5V1371.5z
				 M911.9,1371.5h-2.5v-0.6h2.5V1371.5z M906.9,1371.5h-2.5v-0.6h2.5V1371.5z M901.9,1371.5h-2.5v-0.6h2.5V1371.5z M896.9,1371.5
				h-2.5v-0.6h2.5V1371.5z M891.9,1371.5h-2.5v-0.6h2.5V1371.5z M886.9,1371.5h-2.5v-0.6h2.5V1371.5z M881.9,1371.5h-2.5v-0.6h2.5
				V1371.5z M876.9,1371.5h-2.5v-0.6h2.5V1371.5z M871.9,1371.5h-2.5v-0.6h2.5V1371.5z M866.9,1371.5h-2.5v-0.6h2.5V1371.5z
				 M861.9,1371.5h-2.5v-0.6h2.5V1371.5z M856.9,1371.5h-2.5v-0.6h2.5V1371.5z M851.9,1371.5h-2.5v-0.6h2.5V1371.5z M846.9,1371.5
				h-2.5v-0.6h2.5V1371.5z M841.9,1371.5h-2.5v-0.6h2.5V1371.5z M836.9,1371.5h-2.5v-0.6h2.5V1371.5z M831.9,1371.5h-2.5v-0.6h2.5
				V1371.5z M826.9,1371.5h-2.5v-0.6h2.5V1371.5z M821.9,1371.5h-2.5v-0.6h2.5V1371.5z M816.9,1371.5h-2.5v-0.6h2.5V1371.5z
				 M811.9,1371.5h-2.5v-0.6h2.5V1371.5z M806.9,1371.5h-2.5v-0.6h2.5V1371.5z M801.9,1371.5h-2.5v-0.6h2.5V1371.5z M796.9,1371.5
				h-2.5v-0.6h2.5V1371.5z M791.9,1371.5h-2.5v-0.6h2.5V1371.5z M786.9,1371.5h-2.5v-0.6h2.5V1371.5z M781.9,1371.5h-2.5v-0.6h2.5
				V1371.5z M776.9,1371.5h-2.5v-0.6h2.5V1371.5z M771.9,1371.5h-2.5v-0.6h2.5V1371.5z M766.9,1371.5h-2.5v-0.6h2.5V1371.5z
				 M761.9,1371.5h-2.5v-0.6h2.5V1371.5z M756.9,1371.5h-2.5v-0.6h2.5V1371.5z M751.9,1371.5h-2.5v-0.6h2.5V1371.5z M746.9,1371.5
				h-2.5v-0.6h2.5V1371.5z M741.9,1371.5h-2.5v-0.6h2.5V1371.5z M736.9,1371.5h-2.5v-0.6h2.5V1371.5z M731.9,1371.5h-2.5v-0.6h2.5
				V1371.5z M726.8,1371.5h-2.5v-0.6h2.5V1371.5z M721.8,1371.5h-2.5v-0.6h2.5V1371.5z M716.8,1371.5h-2.5v-0.6h2.5V1371.5z
				 M711.8,1371.5h-2.5v-0.6h2.5V1371.5z M706.8,1371.5h-2.5v-0.6h2.5V1371.5z M701.8,1371.5h-2.5v-0.6h2.5V1371.5z"/>
		</g>
		<path fill="#FFC455" d="M1181.4,1709h-468c-11.5,0-20.7-9.3-20.7-20.7v-274.8c0-11.5,9.3-20.7,20.7-20.7h468
			c11.5,0,20.7,9.3,20.7,20.7v274.8C1202.1,1699.7,1192.9,1709,1181.4,1709z"/>
		<rect x="673.3" y="1454.2" fill="#504D59" width="565" height="279.8"/>
		<linearGradient id="SVGID_18_" gradientUnits="userSpaceOnUse" x1="692.6695" y1="1621.0874" x2="1202.1475" y2="1621.0874">
			<stop  offset="0" style="stop-color:#40D5E6"/>
			<stop  offset="1" style="stop-color:#5577FF"/>
		</linearGradient>
		<path fill="url(#SVGID_18_)" d="M1183,1755.5H711.8c-10.6,0-19.1-8.6-19.1-19.1v-230.6c0-10.6,8.6-19.1,19.1-19.1H1183
			c10.6,0,19.1,8.6,19.1,19.1v230.6C1202.1,1746.9,1193.6,1755.5,1183,1755.5z"/>
		<rect x="679.5" y="1548.2" fill="#504D59" width="558.8" height="231.5"/>
		<path fill="#EFAA88" d="M708,1580.6c0,0-1.6-3.9-1.5-5.9c0,0,0.5-3.7,0.7-6.3c0.1-0.8,0.1-1.6,0.1-2.1c-0.1-2-0.9-6.3,0.2-11.2
			c1.1-4.9,6.7-21.6,6.7-21.6l15.1,2.2l13.1-1.8c0,0,9.8,28.6,9.3,33.2c-0.1,0.5-0.1,0.9-0.2,1.3c-0.8,3.9-3,6.4-3.7,8.4
			c-0.2,0.7-3.2,7.8-5.4,8.5c-3,0.9-5.5,0.4-7.2-1c0,0-6,1.6-9.8-0.2c0,0-5.5,1.6-9.6-1.9C715.8,1582.4,710,1583.4,708,1580.6z"/>
		<path fill="#E34658" d="M774,1273.2c5.1,2,10.5,14.4,6.5,38.7c-4.3,26.1-12.9,37.2-16.4,43.3c-3.5,6.1-24.8,46.7-24.8,52.7
			c0.2,15.6-0.2,56.9,0.3,60.1c0.8,5.4,4.3,67.6,4.3,67.6l-33.6,8c0,0-5.9-70.2-8.9-91.4c-1.2-8.5-3.7-31.8-0.8-55.1
			c2.8-22.4,19.1-72,21.3-76C724.3,1317.2,740.2,1260.1,774,1273.2z"/>
	</g>
	<g>
		<g>
			<g>
				<g>
					<path fill="#0E2D3D" d="M2074.1,985.4c0,0-29.1,14.2-21.9,53c7.2,38.7,10.4,44,2.3,59.1c-8,15.1-17.5,79.7-10.3,91.9
						c7.2,12.2,89.7-53.8,101.1-109.2c11.4-55.4-7.2-80-13.8-89.2C2124.8,981.8,2099.7,972.3,2074.1,985.4z"/>
				</g>
			</g>
		</g>
		<g>
			<path fill="#4754CC" d="M2066,1125.2c0,0-14.8,3-23.1,15.3c-5.8,8.5-6.3,27.4-7.1,31c-0.8,3.6-11.9,43.9-11.9,43.9l30.9,20.7
				L2066,1125.2z"/>
		</g>
		<g>
			<path fill="#1D3B54" d="M1952,1815c0,0-20.1,27.1-17.4,31.4c2.8,4.3,23.9,4.9,36.8,0s13.2-36.7,19-50.3
				c2.4-5.7-2.8-22.6-10.1-23.8c-7.3-1.2-15.3,2.4-15.3,2.4S1972.6,1793.8,1952,1815z"/>
		</g>
		<g>
			<g>
				<path fill="#EEA886" d="M1964.8,1774.4c0,0-4.2,11.5-5.8,22.6c-1.3,9.1-14.3,28.6-13.7,31c0.6,2.5,17.2,4.7,23.9-1.7
					c6.8-6.3,11.1-24.7,12.6-35.8c1.4-10.3,3.1-15.3,3.1-15.3S1971.3,1767.6,1964.8,1774.4z"/>
			</g>
		</g>
		<g>
			<path fill="#1D3B54" d="M2127.3,1815.4c0,0-19.4,26.7-16.7,31c2.8,4.3,23.9,4.9,36.8,0c12.9-4.9,13.2-36.7,19-50.3
				c2.4-5.7-2.8-22.6-10.1-23.8c-7.3-1.2-16,2.6-16,2.6S2147.9,1794.3,2127.3,1815.4z"/>
		</g>
		<g>
			<g>
				<path fill="#EEA886" d="M2140.4,1774.8c0,0-1.5,12.6-4,21.5c-2.5,8.9-15.7,29.2-15,31.6c0.6,2.5,17.2,4.7,23.9-1.7
					c6.8-6.3,12-24.7,12.6-35.8c0.6-11.1-1.5-18.3-1.5-18.3S2146.8,1768.1,2140.4,1774.8z"/>
			</g>
		</g>
		<g>
			<g>
				<path fill="#EEA886" d="M2043.4,1333.4c0,0-17.3,80.4-21.3,100.6c-4,20.2-15.1,118.3-16.3,135c-1.2,16.7-18,79.5-17.2,85.4
					c0.8,6-25,125.6-25,125.6s8.8,7.1,18.1,0.6c4.8-3.3,56.5-112,56.5-141.7c0-41.1,30.4-94.9,34.4-104.1
					c36.5-85.5,29.3-111.7,34.1-117.2c4.8-5.6,5.2,3.4,8,15.7c2.8,12.3,8.7,118.7,12.3,132.2c3.6,13.5,0.8,59.1,2.8,82.2
					c2,23,10.7,127.2,10.7,127.2s6.7,10.6,16.2,0.3c2-2.2,16.3-116,16.7-143.4c0.4-27.4,0.8-65.2,1.6-77c7.4-113.5,25.4-129.7-3-210
					C2118.6,1194.3,2043.4,1333.4,2043.4,1333.4z"/>
			</g>
		</g>
		<g>
			<path fill="#141954" d="M2159.4,1311c0,0,49.2,68.9,28,215.5c0,0-116.8,15.9-179.4-18.4c0,0,25.9-151.1,35.2-174.7
				C2052.7,1309.9,2159.4,1311,2159.4,1311z"/>
		</g>
		<g>
			<polygon fill="#1D3B54" points="1991,1793.6 1991,1822 1987.3,1822 1987.3,1800.1 			"/>
		</g>
		<g>
			<polygon fill="#1D3B54" points="2167,1793.6 2167,1822 2163.3,1822 2163.3,1800.1 			"/>
		</g>
		<g>
			<path fill="#EDDAD3" d="M2093.4,1115.1c0,0-18.1,8.6-24.4,9.8c-6.3,1.3-30.7,33-35,44.6c-4.3,11.6,0,29,8.8,49.4
				c8.8,20.4,0.5,27.2,4.5,47.6c4,20.4,7.6,63.6,6.8,75c-0.8,11.3,101.9,13.5,125.3-7.2c0,0-23.5-35.3-26.6-40.3
				c-3-5-0.5-32.5,2.3-39.6c2.8-7.1,21.2-67,21.2-67s15.1-46.1,1.5-56.7c-11.8-9.2-44.1-12.5-49.9-14.5
				C2122.1,1114.3,2105.2,1113.4,2093.4,1115.1z"/>
		</g>
		<g>
			<path fill="#D6C5BE" d="M2087.6,1155.6l-11-12.9l9.6-34C2086.1,1108.7,2089.3,1127.6,2087.6,1155.6z"/>
		</g>
		<g>
			<path fill="#EEA886" d="M2084.7,1094.2c0,0,0.5,4.5,1.1,10.8c0.3,2.8,0.5,5.9,0.8,9.1c0.7,9.2,1.3,19.1,1,24.1
				c0,0,18.9,18.9,40.3-22c0,0-9-16.9-2.2-39.9C2132.4,1053.4,2084.7,1094.2,2084.7,1094.2z"/>
		</g>
		<g>
			<polygon fill="#EEA886" points="2087.6,1138.3 2087.6,1155.6 2109.3,1139.4 			"/>
		</g>
		<g>
			<polygon fill="#D6C5BE" points="2087.6,1155.6 2096.6,1144.4 2126.9,1114.2 2136.7,1123.6 			"/>
		</g>
		<g>
			<path fill="#4754CC" d="M2131.1,1117.1c0,0-25.5,38.6-26.7,55.6c-1.2,17,9.5,144.2,18,185.1c8.6,40.9,70.3-4.6,70.3-4.6
				s-41.5-67.2-25.6-121c15.9-53.8,21.7-75.3,21.7-75.3s-5.5-30-24.9-34.2C2147,1119,2131.1,1117.1,2131.1,1117.1z"/>
		</g>
		<g>
			<path fill="#4754CC" d="M2032.2,1174.7c0,0-4.6,16.2,13.3,52.2c0,0-0.3,46-0.8,60.3c-0.5,14.4-10.7,66-10.7,66l24.4,13
				c3.6,2.1,8-0.8,7.5-4.9c-5-41.3-21.3-198.1,13.9-240.2l-14.1,4.2C2065.8,1125.3,2040.7,1145.8,2032.2,1174.7z"/>
		</g>
		<g>
			<polygon fill="#FAE6DE" points="2076.5,1142.7 2062.7,1146.5 2086.1,1108.7 			"/>
		</g>
		<g>
			<polygon fill="#FAE6DE" points="2096.6,1144.4 2109.3,1161.1 2135.3,1117.6 2126.3,1112.5 			"/>
		</g>
		
			<rect x="2057.3" y="1204.4" transform="matrix(0.7842 0.6205 -0.6205 0.7842 1208.6504 -1012.2096)" fill="#EB4747" width="4.6" height="54.3"/>
		<path fill="#EEA886" d="M2080.3,1249.4c0,0-3.2,0.1-5.3-1.5c-3.7-2.8-5-9.5-11.4-9c-6.5,0.5-9.4,20.7-7.8,24.6s10.6,5.7,23.8,3.1
			C2092.8,1263.9,2080.3,1249.4,2080.3,1249.4z"/>
		<path fill="#EEA886" d="M2065.7,1239c0,0-9.3-3.2-20-5.5c-9.4-2-20.6-2.7-21.7-1.1c-1.2,1.8,9.1,3.4,18.4,6
			c8.5,2.4,6.5,3.3,6.5,3.3s0.6-0.3-9.1-1.2c-10.4-1-21.1-1-22.2,1.1c-0.5,1-0.2,1.7,3.6,2.6c-2.3-0.1-2.6,0.5-2.7,1.4
			c-0.4,4.7,14.7,8.4,20.7,9.9c-4.6-1.1-8.1-1.4-6.5,1.7c1.9,3.6,23.6,7.9,31.2,10.2C2072.3,1270,2065.7,1239,2065.7,1239z"/>
		<path fill="#4754CC" d="M2160.4,1123.4c6.4-2.1,25.1,4.6,28.3,23.8c3.2,19.2,4.4,40.5,7.4,50.9c3,10.3,10.5,56.2,4.2,59.9
			c-6.3,3.8-18.3,7.3-35.1,7.3c-17.4,0-84.7,3-84.7,3l-4.2-23.9c0,0,25.6-1.3,38.8-3.3c11.8-1.8,28.1-6.8,47.4-8.9
			c0,0-4.1-28.4-7-36.4C2152.4,1187.7,2131.7,1132.7,2160.4,1123.4z"/>
		<g>
			<polygon fill="#FFFFFF" points="2074.4,1286.3 2006.6,1272.8 1956.3,1165.2 2028.7,1172.8 			"/>
		</g>
		<g>
			<g>
				<path fill="#EEA886" d="M1998.1,1254.6c0,0-3.7-3.5-7-8.3c-3.3-4.8-14.1-23.3-13.2-24.4c1-1.2,17.1-1.6,20,1.1
					c2.9,2.6-2.9,3.7-2.9,3.7s8.8,0.9,8.2,3.4c-0.6,2.5-5.9,1.8-5.9,1.8s7.1,1.4,6,3.5c-1.1,2.2-4.5,2.2-4.5,2.2s6.3,0.8,5.5,3.2
					c-0.8,2.4-10.7,4.6-9.4,6.6C1996.3,1249.2,1998.1,1254.6,1998.1,1254.6z"/>
			</g>
		</g>
		<g>
			<g>
				<g>
					<path fill="#EEA987" d="M2078.3,989.7c0,0-42.3,13.3-19.3,86.2c22.9,72.9,80.7-8.5,74.6-52.9
						C2127.5,978.5,2078.3,989.7,2078.3,989.7z"/>
				</g>
			</g>
		</g>
		<g>
			<g>
				<g>
					<path fill="#0E2D3D" d="M2054.6,1032.2c0,0,21,20.6,56.1,23.2c0,0,13.5,15.8,14.5,22.1c0,0,31.4-53.4-7.2-85.5
						C2079.6,959.9,2040.5,1019,2054.6,1032.2z"/>
				</g>
			</g>
		</g>
		<g>
			<g>
				<g>
					<path fill="#EEA987" d="M2110.4,1056.8c0.3-5.3,3.5-17.4,11.4-14c7.9,3.4-0.5,28-5.7,26.5
						C2116.1,1069.3,2109.7,1069.4,2110.4,1056.8z"/>
				</g>
			</g>
		</g>
		<path fill="#A77860" d="M2085.8,1105c0.3,2.8,0.5,5.9,0.8,9.1h0c24.4-12.1,28.2-29.5,28.3-30
			C2097.5,1106.7,2085.8,1105,2085.8,1105z"/>
	</g>
</g>
</svg>
