<svg xmlns="http://www.w3.org/2000/svg" viewBox="0 0 48 48">
<path fill="#2C9E48" d="M10.6155178,10.1606636 L25.9095694,1.4652701 C25.334605,1.12203088 24.6446478,0.778791665 23.9546906,0.549965519 L10.6155178,7.98681526 L4.7508815,4.66883615 C4.29091002,5.12648844 3.94593141,5.58414073 3.48595994,6.1562061 L10.6155178,10.1606636 Z M29.1293697,3.86794464 C28.6693982,3.41029234 28.2094268,3.06705312 27.6344624,2.60940083 L10.6155178,12.220099 L2.45102412,7.64357604 C2.22103838,8.21564141 1.99105264,8.78770677 1.64607403,9.35977214 L10.6155178,14.2795343 L29.1293697,3.86794464 Z M10.6155178,16.4533827 L1.07110969,10.9615552 C0.956116821,11.5336205 0.726131083,12.1056859 0.611138214,12.7921643 L10.6155178,18.3984049 L31.54422,6.72827146 C31.1992414,6.27061917 30.8542627,5.6985538 30.3942913,5.24090151 C30.3942913,5.24090151 10.6155178,16.4533827 10.6155178,16.4533827 Z M34.3040488,15.8813173 C34.3040488,25.0343631 26.7145195,32.585626 17.2851042,32.585626 C7.97068183,32.585626 0.266159607,25.1487762 0.266159607,15.8813173 L0.266159607,14.7371866 L10.5005249,20.5722533 L32.34917,8.21564141 C33.6140916,10.6183159 34.3040488,13.2498166 34.3040488,15.8813173 Z" transform="translate(6.5 7.5)"/>
</svg>
