<svg xmlns="http://www.w3.org/2000/svg" viewBox="0 0 48 48">
<g fill="none" fill-rule="evenodd" opacity=".9" transform="translate(9.084 3)">
<path fill="#FFCF01" d="M4.56589573e-16,18.6284024 C4.56589573e-16,16.5030142 0.126541331,15.127763 4.55548792,11.8771693 C8.35172785,9.2516898 19.9935303,0 19.9935303,0 L19.9935303,15.3778087 L28.8514235,15.3778087 L28.8514235,37.5068505 L2.78390928,37.5068505 C1.26541331,37.5068505 0,36.2566222 0,34.7563482 L4.56589573e-16,18.6284024 Z"/>
<polygon fill="#D3AB07" points="21.032 15.868 21.032 24.887 5.049 36.064 25.245 29.332 25.245 15.868"/>
<path fill="#000" d="M14.5052835,14.9605791 C15.4830258,13.7589876 16.8274215,13.3584571 17.5607282,14.026008 C18.2940349,14.6935588 18.1718172,16.2956808 17.1940748,17.4972723 C16.2163325,18.6988638 14.8719368,19.0993943 14.1386301,18.4318434 C13.4053234,17.7642926 13.6497589,16.1621706 14.5052835,14.9605791"/>
</g>
</svg>
